RedHatMonoVF-LightItalic.ufo
<glyph name="exclam" format="2">
  <advance width="600"/>
  <unicode hex="0021"/>
  <outline>
    <contour>
      <point x="271" y="208" type="line"/>
      <point x="312" y="208" type="line"/>
      <point x="431" y="727" type="line"/>
      <point x="378" y="727" type="line"/>
    </contour>
    <contour>
      <point x="253" y="-8" type="curve" smooth="yes"/>
      <point x="283" y="-8"/>
      <point x="312" y="21"/>
      <point x="312" y="53" type="curve" smooth="yes"/>
      <point x="312" y="80"/>
      <point x="292" y="100"/>
      <point x="265" y="100" type="curve" smooth="yes"/>
      <point x="235" y="100"/>
      <point x="206" y="71"/>
      <point x="206" y="39" type="curve" smooth="yes"/>
      <point x="206" y="12"/>
      <point x="226" y="-8"/>
    </contour>
  </outline>
</glyph>
<glyph name="dollar" format="2">
  <advance width="600"/>
  <unicode hex="0024"/>
  <outline>
    <contour>
      <point x="210" y="-67" type="line"/>
      <point x="254" y="-67" type="line"/>
      <point x="273" y="23" type="line"/>
      <point x="275" y="23"/>
      <point x="277" y="23"/>
      <point x="279" y="23" type="curve" smooth="yes"/>
      <point x="412" y="23"/>
      <point x="505" y="101"/>
      <point x="505" y="201" type="curve" smooth="yes"/>
      <point x="505" y="280"/>
      <point x="463" y="325"/>
      <point x="345" y="370" type="curve"/>
      <point x="398" y="629" type="line"/>
      <point x="447" y="619"/>
      <point x="491" y="593"/>
      <point x="529" y="551" type="curve"/>
      <point x="563" y="581" type="line"/>
      <point x="519" y="629"/>
      <point x="464" y="660"/>
      <point x="407" y="671" type="curve"/>
      <point x="427" y="767" type="line"/>
      <point x="383" y="767" type="line"/>
      <point x="364" y="676" type="line"/>
      <point x="363" y="676"/>
      <point x="362" y="676"/>
      <point x="361" y="676" type="curve" smooth="yes"/>
      <point x="229" y="676"/>
      <point x="143" y="609"/>
      <point x="143" y="506" type="curve" smooth="yes"/>
      <point x="143" y="428"/>
      <point x="190" y="376"/>
      <point x="294" y="339" type="curve"/>
      <point x="238" y="69" type="line"/>
      <point x="185" y="77"/>
      <point x="139" y="103"/>
      <point x="92" y="151" type="curve"/>
      <point x="60" y="119" type="line"/>
      <point x="112" y="67"/>
      <point x="167" y="37"/>
      <point x="229" y="27" type="curve"/>
    </contour>
    <contour>
      <point x="303" y="383" type="line"/>
      <point x="222" y="415"/>
      <point x="190" y="450"/>
      <point x="190" y="507" type="curve" smooth="yes"/>
      <point x="190" y="584"/>
      <point x="255" y="633"/>
      <point x="355" y="633" type="curve"/>
    </contour>
    <contour>
      <point x="282" y="66" type="curve"/>
      <point x="335" y="326" type="line"/>
      <point x="428" y="288"/>
      <point x="458" y="257"/>
      <point x="458" y="202" type="curve" smooth="yes"/>
      <point x="458" y="123"/>
      <point x="385" y="67"/>
    </contour>
  </outline>
</glyph>
<glyph name="percent" format="2">
  <advance width="600"/>
  <unicode hex="0025"/>
  <outline>
    <contour>
      <point x="406" y="-5" type="curve" smooth="yes"/>
      <point x="483" y="-5"/>
      <point x="547" y="76"/>
      <point x="547" y="173" type="curve" smooth="yes"/>
      <point x="547" y="240"/>
      <point x="504" y="287"/>
      <point x="443" y="287" type="curve" smooth="yes"/>
      <point x="366" y="287"/>
      <point x="302" y="207"/>
      <point x="302" y="110" type="curve" smooth="yes"/>
      <point x="302" y="42"/>
      <point x="345" y="-5"/>
    </contour>
    <contour>
      <point x="410" y="33" type="curve" smooth="yes"/>
      <point x="368" y="33"/>
      <point x="343" y="63"/>
      <point x="343" y="112" type="curve" smooth="yes"/>
      <point x="343" y="187"/>
      <point x="387" y="249"/>
      <point x="439" y="249" type="curve" smooth="yes"/>
      <point x="481" y="249"/>
      <point x="506" y="220"/>
      <point x="506" y="171" type="curve" smooth="yes"/>
      <point x="506" y="95"/>
      <point x="463" y="33"/>
    </contour>
    <contour>
      <point x="204" y="413" type="curve" smooth="yes"/>
      <point x="281" y="413"/>
      <point x="345" y="494"/>
      <point x="345" y="591" type="curve" smooth="yes"/>
      <point x="345" y="658"/>
      <point x="302" y="705"/>
      <point x="241" y="705" type="curve" smooth="yes"/>
      <point x="164" y="705"/>
      <point x="100" y="625"/>
      <point x="100" y="528" type="curve" smooth="yes"/>
      <point x="100" y="460"/>
      <point x="143" y="413"/>
    </contour>
    <contour>
      <point x="208" y="451" type="curve" smooth="yes"/>
      <point x="166" y="451"/>
      <point x="141" y="481"/>
      <point x="141" y="530" type="curve" smooth="yes"/>
      <point x="141" y="605"/>
      <point x="185" y="667"/>
      <point x="237" y="667" type="curve" smooth="yes"/>
      <point x="279" y="667"/>
      <point x="304" y="638"/>
      <point x="304" y="589" type="curve" smooth="yes"/>
      <point x="304" y="513"/>
      <point x="261" y="451"/>
    </contour>
    <component base="fraction" xOffset="44"/>
  </outline>
</glyph>
<glyph name="parenleft" format="2">
  <advance width="600"/>
  <unicode hex="0028"/>
  <outline>
    <contour>
      <point x="351" y="-221" type="curve"/>
      <point x="383" y="-181" type="line"/>
      <point x="282" y="-97"/>
      <point x="224" y="36"/>
      <point x="224" y="174" type="curve" smooth="yes"/>
      <point x="224" y="380"/>
      <point x="355" y="586"/>
      <point x="565" y="669" type="curve"/>
      <point x="548" y="715" type="line"/>
      <point x="317" y="619"/>
      <point x="173" y="405"/>
      <point x="173" y="173" type="curve" smooth="yes"/>
      <point x="173" y="22"/>
      <point x="238" y="-122"/>
    </contour>
  </outline>
</glyph>
<glyph name="slash" format="2">
  <advance width="600"/>
  <unicode hex="002F"/>
  <outline>
    <contour>
      <point x="-43" y="-209" type="line"/>
      <point x="13" y="-209" type="line"/>
      <point x="605" y="700" type="line"/>
      <point x="549" y="700" type="line"/>
    </contour>
  </outline>
</glyph>
<glyph name="zero" format="2">
  <advance width="600"/>
  <unicode hex="0030"/>
  <outline>
    <contour>
      <point x="282" y="-11" type="curve" smooth="yes"/>
      <point x="432" y="-11"/>
      <point x="578" y="174"/>
      <point x="578" y="428" type="curve" smooth="yes"/>
      <point x="578" y="614"/>
      <point x="486" y="711"/>
      <point x="364" y="711" type="curve" smooth="yes"/>
      <point x="214" y="711"/>
      <point x="68" y="526"/>
      <point x="68" y="272" type="curve" smooth="yes"/>
      <point x="68" y="86"/>
      <point x="160" y="-11"/>
    </contour>
    <contour>
      <point x="280" y="35" type="curve" smooth="yes"/>
      <point x="234" y="35"/>
      <point x="195" y="55"/>
      <point x="166" y="94" type="curve"/>
      <point x="502" y="565" type="line"/>
      <point x="518" y="527"/>
      <point x="527" y="480"/>
      <point x="527" y="424" type="curve" smooth="yes"/>
      <point x="527" y="204"/>
      <point x="408" y="35"/>
    </contour>
    <contour>
      <point x="144" y="135" type="line"/>
      <point x="128" y="173"/>
      <point x="119" y="220"/>
      <point x="119" y="276" type="curve" smooth="yes"/>
      <point x="119" y="496"/>
      <point x="238" y="665"/>
      <point x="366" y="665" type="curve" smooth="yes"/>
      <point x="412" y="665"/>
      <point x="451" y="645"/>
      <point x="480" y="606" type="curve"/>
    </contour>
  </outline>
</glyph>
<glyph name="two" format="2">
  <advance width="600"/>
  <unicode hex="0032"/>
  <outline>
    <contour>
      <point x="39" y="0" type="line"/>
      <point x="465" y="0" type="line"/>
      <point x="475" y="45" type="line"/>
      <point x="119" y="45" type="line"/>
      <point x="457" y="363" type="line" smooth="yes"/>
      <point x="539" y="440"/>
      <point x="567" y="490"/>
      <point x="567" y="559" type="curve" smooth="yes"/>
      <point x="567" y="647"/>
      <point x="488" y="711"/>
      <point x="378" y="711" type="curve" smooth="yes"/>
      <point x="308" y="711"/>
      <point x="234" y="684"/>
      <point x="158" y="626" type="curve"/>
      <point x="180" y="587" type="line"/>
      <point x="261" y="647"/>
      <point x="321" y="666"/>
      <point x="383" y="666" type="curve" smooth="yes"/>
      <point x="461" y="666"/>
      <point x="516" y="619"/>
      <point x="516" y="553" type="curve" smooth="yes"/>
      <point x="516" y="504"/>
      <point x="487" y="452"/>
      <point x="425" y="394" type="curve" smooth="yes"/>
      <point x="47" y="38" type="line"/>
    </contour>
  </outline>
</glyph>
<glyph name="less" format="2">
  <advance width="600"/>
  <unicode hex="003C"/>
  <outline>
    <contour>
      <point x="401" y="118" type="line"/>
      <point x="432" y="150" type="line"/>
      <point x="210" y="345" type="line"/>
      <point x="517" y="541" type="line"/>
      <point x="495" y="579" type="line"/>
      <point x="142" y="349" type="line"/>
    </contour>
  </outline>
</glyph>
<glyph name="at" format="2">
  <advance width="600"/>
  <unicode hex="0040"/>
  <outline>
    <contour>
      <point x="296" y="-144" type="curve" smooth="yes"/>
      <point x="352" y="-144"/>
      <point x="401" y="-134"/>
      <point x="452" y="-105" type="curve"/>
      <point x="435" y="-66" type="line"/>
      <point x="394" y="-93"/>
      <point x="348" y="-104"/>
      <point x="300" y="-104" type="curve" smooth="yes"/>
      <point x="151" y="-104"/>
      <point x="51" y="17"/>
      <point x="51" y="180" type="curve" smooth="yes"/>
      <point x="51" y="376"/>
      <point x="176" y="534"/>
      <point x="331" y="534" type="curve" smooth="yes"/>
      <point x="464" y="534"/>
      <point x="551" y="438"/>
      <point x="551" y="292" type="curve" smooth="yes"/>
      <point x="551" y="189"/>
      <point x="500" y="97"/>
      <point x="442" y="97" type="curve" smooth="yes"/>
      <point x="408" y="97"/>
      <point x="392" y="125"/>
      <point x="403" y="170" type="curve" smooth="yes"/>
      <point x="450" y="365" type="line"/>
      <point x="406" y="365" type="line"/>
      <point x="400" y="340" type="line"/>
      <point x="378" y="365"/>
      <point x="347" y="378"/>
      <point x="310" y="378" type="curve" smooth="yes"/>
      <point x="220" y="378"/>
      <point x="149" y="295"/>
      <point x="149" y="189" type="curve" smooth="yes"/>
      <point x="149" y="110"/>
      <point x="197" y="53"/>
      <point x="263" y="53" type="curve" smooth="yes"/>
      <point x="297" y="53"/>
      <point x="334" y="67"/>
      <point x="367" y="95" type="curve"/>
      <point x="379" y="70"/>
      <point x="402" y="57"/>
      <point x="434" y="57" type="curve" smooth="yes"/>
      <point x="523" y="57"/>
      <point x="592" y="164"/>
      <point x="592" y="301" type="curve" smooth="yes"/>
      <point x="592" y="464"/>
      <point x="489" y="574"/>
      <point x="337" y="574" type="curve" smooth="yes"/>
      <point x="153" y="574"/>
      <point x="10" y="401"/>
      <point x="10" y="178" type="curve" smooth="yes"/>
      <point x="10" y="-10"/>
      <point x="131" y="-144"/>
    </contour>
    <contour>
      <point x="274" y="91" type="curve" smooth="yes"/>
      <point x="225" y="91"/>
      <point x="192" y="131"/>
      <point x="192" y="192" type="curve" smooth="yes"/>
      <point x="192" y="273"/>
      <point x="246" y="339"/>
      <point x="313" y="339" type="curve" smooth="yes"/>
      <point x="348" y="339"/>
      <point x="378" y="322"/>
      <point x="391" y="296" type="curve"/>
      <point x="363" y="174" type="line" smooth="yes"/>
      <point x="359" y="158"/>
      <point x="358" y="144"/>
      <point x="358" y="132" type="curve"/>
      <point x="337" y="106"/>
      <point x="306" y="91"/>
    </contour>
  </outline>
</glyph>
<glyph name="C" format="2">
  <advance width="600"/>
  <unicode hex="0043"/>
  <guideline x="186" y="297" angle="0.0" identifier="XzmC9agYa3"/>
  <anchor x="380" y="700" name="top"/>
  <anchor x="290" y="0" name="bottom"/>
  <outline>
    <contour>
      <point x="284" y="-11" type="curve" smooth="yes"/>
      <point x="398" y="-11"/>
      <point x="500" y="66"/>
      <point x="555" y="198" type="curve"/>
      <point x="507" y="216" type="line"/>
      <point x="459" y="102"/>
      <point x="378" y="37"/>
      <point x="284" y="37" type="curve" smooth="yes"/>
      <point x="181" y="37"/>
      <point x="110" y="128"/>
      <point x="110" y="277" type="curve" smooth="yes"/>
      <point x="110" y="513"/>
      <point x="243" y="663"/>
      <point x="378" y="663" type="curve" smooth="yes"/>
      <point x="470" y="663"/>
      <point x="532" y="603"/>
      <point x="553" y="490" type="curve"/>
      <point x="603" y="500" type="line"/>
      <point x="580" y="634"/>
      <point x="496" y="711"/>
      <point x="377" y="711" type="curve" smooth="yes"/>
      <point x="223" y="711"/>
      <point x="59" y="555"/>
      <point x="59" y="276" type="curve" smooth="yes"/>
      <point x="59" y="94"/>
      <point x="153" y="-11"/>
    </contour>
  </outline>
</glyph>
<glyph name="D" format="2">
  <advance width="600"/>
  <unicode hex="0044"/>
  <anchor x="411" y="700" name="top"/>
  <outline>
    <contour>
      <point x="45" y="0" type="line"/>
      <point x="250" y="0" type="line" smooth="yes"/>
      <point x="447" y="0"/>
      <point x="586" y="181"/>
      <point x="586" y="412" type="curve" smooth="yes"/>
      <point x="586" y="614"/>
      <point x="478" y="700"/>
      <point x="329" y="700" type="curve" smooth="yes"/>
      <point x="194" y="700" type="line"/>
    </contour>
    <contour>
      <point x="335" y="653" type="line" smooth="yes"/>
      <point x="462" y="653"/>
      <point x="535" y="567"/>
      <point x="535" y="406" type="curve" smooth="yes"/>
      <point x="535" y="211"/>
      <point x="421" y="47"/>
      <point x="247" y="47" type="curve" smooth="yes"/>
      <point x="106" y="47" type="line"/>
      <point x="235" y="653" type="line"/>
    </contour>
  </outline>
</glyph>
<glyph name="F" format="2">
  <advance width="600"/>
  <unicode hex="0046"/>
  <outline>
    <contour>
      <point x="59" y="0" type="line"/>
      <point x="110" y="0" type="line"/>
      <point x="179" y="325" type="line"/>
      <point x="443" y="325" type="line"/>
      <point x="453" y="372" type="line"/>
      <point x="189" y="372" type="line"/>
      <point x="249" y="653" type="line"/>
      <point x="629" y="653" type="line"/>
      <point x="639" y="700" type="line"/>
      <point x="208" y="700" type="line"/>
    </contour>
  </outline>
</glyph>
<glyph name="H" format="2">
  <advance width="600"/>
  <unicode hex="0048"/>
  <guideline x="202" y="700" angle="0.0" color="0.999,0.001,0.001,0.999" identifier="ey0azTqPvY"/>
  <anchor x="400" y="700" name="top"/>
  <outline>
    <contour>
      <point x="28" y="0" type="line"/>
      <point x="79" y="0" type="line"/>
      <point x="149" y="329" type="line"/>
      <point x="489" y="329" type="line"/>
      <point x="419" y="0" type="line"/>
      <point x="470" y="0" type="line"/>
      <point x="619" y="700" type="line"/>
      <point x="568" y="700" type="line"/>
      <point x="499" y="376" type="line"/>
      <point x="159" y="376" type="line"/>
      <point x="228" y="700" type="line"/>
      <point x="177" y="700" type="line"/>
    </contour>
  </outline>
</glyph>
<glyph name="J" format="2">
  <advance width="600"/>
  <unicode hex="004A"/>
  <guideline x="425" y="313" angle="0.0" identifier="HZDkHZFTMM"/>
  <guideline x="577" y="700" angle="0.0" color="0.999,0.001,0.001,0.999" identifier="tUhUF86p3f"/>
  <anchor x="577" y="700" name="top"/>
  <outline>
    <contour>
      <point x="248" y="-11" type="curve" smooth="yes"/>
      <point x="388" y="-11"/>
      <point x="467" y="65"/>
      <point x="503" y="232" type="curve" smooth="yes"/>
      <point x="603" y="700" type="line"/>
      <point x="552" y="700" type="line"/>
      <point x="455" y="246" type="line" smooth="yes"/>
      <point x="424" y="101"/>
      <point x="361" y="37"/>
      <point x="251" y="37" type="curve" smooth="yes"/>
      <point x="165" y="37"/>
      <point x="101" y="91"/>
      <point x="81" y="182" type="curve"/>
      <point x="39" y="159" type="line"/>
      <point x="65" y="51"/>
      <point x="142" y="-11"/>
    </contour>
  </outline>
</glyph>
<glyph name="P" format="2">
  <advance width="600"/>
  <unicode hex="0050"/>
  <outline>
    <contour>
      <point x="54" y="0" type="line"/>
      <point x="105" y="0" type="line"/>
      <point x="168" y="298" type="line"/>
      <point x="357" y="298" type="line" smooth="yes"/>
      <point x="496" y="298"/>
      <point x="596" y="393"/>
      <point x="596" y="527" type="curve" smooth="yes"/>
      <point x="596" y="634"/>
      <point x="523" y="700"/>
      <point x="406" y="700" type="curve" smooth="yes"/>
      <point x="203" y="700" type="line"/>
    </contour>
    <contour>
      <point x="178" y="345" type="line"/>
      <point x="244" y="653" type="line"/>
      <point x="400" y="653" type="line" smooth="yes"/>
      <point x="490" y="653"/>
      <point x="545" y="605"/>
      <point x="545" y="525" type="curve" smooth="yes"/>
      <point x="545" y="419"/>
      <point x="467" y="345"/>
      <point x="357" y="345" type="curve" smooth="yes"/>
    </contour>
  </outline>
</glyph>
<glyph name="Q" format="2">
  <advance width="600"/>
  <unicode hex="0051"/>
  <outline>
    <contour>
      <point x="269" y="-11" type="curve" smooth="yes"/>
      <point x="321" y="-11"/>
      <point x="370" y="8"/>
      <point x="414" y="41" type="curve"/>
      <point x="444" y="-8" type="line"/>
      <point x="503" y="-10" type="line"/>
      <point x="450" y="73" type="line"/>
      <point x="533" y="156"/>
      <point x="588" y="292"/>
      <point x="588" y="441" type="curve" smooth="yes"/>
      <point x="588" y="605"/>
      <point x="505" y="711"/>
      <point x="377" y="711" type="curve" smooth="yes"/>
      <point x="206" y="711"/>
      <point x="58" y="502"/>
      <point x="58" y="259" type="curve" smooth="yes"/>
      <point x="58" y="95"/>
      <point x="141" y="-11"/>
    </contour>
    <contour>
      <point x="270" y="37" type="curve" smooth="yes"/>
      <point x="172" y="37"/>
      <point x="109" y="124"/>
      <point x="109" y="259" type="curve" smooth="yes"/>
      <point x="109" y="474"/>
      <point x="234" y="663"/>
      <point x="376" y="663" type="curve" smooth="yes"/>
      <point x="474" y="663"/>
      <point x="537" y="576"/>
      <point x="537" y="441" type="curve" smooth="yes"/>
      <point x="537" y="311"/>
      <point x="491" y="190"/>
      <point x="424" y="115" type="curve"/>
      <point x="361" y="214" type="line"/>
      <point x="303" y="216" type="line"/>
      <point x="388" y="82" type="line"/>
      <point x="352" y="53"/>
      <point x="312" y="37"/>
    </contour>
  </outline>
</glyph>
<glyph name="S" format="2">
  <advance width="600"/>
  <unicode hex="0053"/>
  <anchor x="360" y="700" name="top"/>
  <anchor x="286" y="0" name="bottom"/>
  <outline>
    <contour>
      <point x="290" y="-12" type="curve" smooth="yes"/>
      <point x="417" y="-12"/>
      <point x="520" y="66"/>
      <point x="520" y="189" type="curve" smooth="yes"/>
      <point x="520" y="436"/>
      <point x="178" y="337"/>
      <point x="178" y="533" type="curve" smooth="yes"/>
      <point x="178" y="605"/>
      <point x="239" y="665"/>
      <point x="349" y="665" type="curve" smooth="yes"/>
      <point x="416" y="665"/>
      <point x="491" y="634"/>
      <point x="558" y="574" type="curve"/>
      <point x="588" y="616" type="line"/>
      <point x="510" y="684"/>
      <point x="429" y="712"/>
      <point x="347" y="712" type="curve" smooth="yes"/>
      <point x="210" y="712"/>
      <point x="130" y="633"/>
      <point x="130" y="532" type="curve" smooth="yes"/>
      <point x="130" y="291"/>
      <point x="472" y="385"/>
      <point x="472" y="189" type="curve" smooth="yes"/>
      <point x="472" y="100"/>
      <point x="394" y="35"/>
      <point x="294" y="35" type="curve" smooth="yes"/>
      <point x="216" y="35"/>
      <point x="127" y="76"/>
      <point x="76" y="148" type="curve"/>
      <point x="38" y="113" type="line"/>
      <point x="92" y="33"/>
      <point x="191" y="-12"/>
    </contour>
  </outline>
</glyph>
<glyph name="T" format="2">
  <advance width="600"/>
  <unicode hex="0054"/>
  <guideline x="399" y="672" angle="0.0" identifier="CJr8C0xu4G"/>
  <guideline x="249" y="0" angle="78.0" color="0.999,0.001,0.001,0.999" identifier="p0LS3J1KPO"/>
  <anchor x="397" y="700" name="top"/>
  <anchor x="249" y="0" name="bottom"/>
  <outline>
    <contour>
      <point x="224" y="0" type="line"/>
      <point x="275" y="0" type="line"/>
      <point x="414" y="653" type="line"/>
      <point x="654" y="653" type="line"/>
      <point x="664" y="700" type="line"/>
      <point x="132" y="700" type="line"/>
      <point x="122" y="653" type="line"/>
      <point x="363" y="653" type="line"/>
    </contour>
  </outline>
</glyph>
<glyph name="U" format="2">
  <advance width="600"/>
  <unicode hex="0055"/>
  <guideline x="398" y="700" angle="0.0" color="0.999,0.001,0.001,0.999" identifier="k6iFwE9QEI"/>
  <anchor x="398" y="700" name="top"/>
  <anchor x="354" y="0" name="bottom"/>
  <outline>
    <contour>
      <point x="273" y="-11" type="curve" smooth="yes"/>
      <point x="424" y="-11"/>
      <point x="503" y="84"/>
      <point x="535" y="236" type="curve" smooth="yes"/>
      <point x="634" y="700" type="line"/>
      <point x="583" y="700" type="line"/>
      <point x="486" y="245" type="line" smooth="yes"/>
      <point x="457" y="110"/>
      <point x="391" y="37"/>
      <point x="270" y="37" type="curve" smooth="yes"/>
      <point x="147" y="37"/>
      <point x="90" y="126"/>
      <point x="119" y="260" type="curve" smooth="yes"/>
      <point x="213" y="700" type="line"/>
      <point x="162" y="700" type="line"/>
      <point x="71" y="271" type="line" smooth="yes"/>
      <point x="32" y="89"/>
      <point x="116" y="-11"/>
    </contour>
  </outline>
</glyph>
<glyph name="W" format="2">
  <advance width="600"/>
  <unicode hex="0057"/>
  <guideline x="488" y="133" angle="0.0" identifier="jO1l6uPTYo"/>
  <guideline x="396" y="700" angle="0.0" color="0.999,0.001,0.001,0.999" identifier="PtYmK3oGfx"/>
  <anchor x="397" y="700" name="top"/>
  <outline>
    <contour>
      <point x="68" y="0" type="line"/>
      <point x="120" y="0" type="line"/>
      <point x="381" y="616" type="line"/>
      <point x="381" y="0" type="line"/>
      <point x="433" y="0" type="line"/>
      <point x="668" y="700" type="line"/>
      <point x="618" y="700" type="line"/>
      <point x="425" y="125" type="line"/>
      <point x="425" y="700" type="line"/>
      <point x="368" y="700" type="line"/>
      <point x="126" y="128" type="line"/>
      <point x="178" y="700" type="line"/>
      <point x="128" y="700" type="line"/>
    </contour>
  </outline>
</glyph>
<glyph name="Y" format="2">
  <advance width="600"/>
  <unicode hex="0059"/>
  <guideline x="394" y="700" angle="0.0" color="0.999,0.001,0.001,0.999" identifier="L9bhuyn8go"/>
  <anchor x="394" y="700" name="top"/>
  <outline>
    <contour>
      <point x="222" y="0" type="line"/>
      <point x="273" y="0" type="line"/>
      <point x="333" y="280" type="line"/>
      <point x="670" y="700" type="line"/>
      <point x="609" y="700" type="line"/>
      <point x="317" y="331" type="line"/>
      <point x="179" y="700" type="line"/>
      <point x="126" y="700" type="line"/>
      <point x="283" y="286" type="line"/>
    </contour>
  </outline>
</glyph>
<glyph name="backslash" format="2">
  <advance width="600"/>
  <unicode hex="005C"/>
  <outline>
    <contour>
      <point x="404" y="-209" type="line"/>
      <point x="452" y="-209" type="line"/>
      <point x="245" y="700" type="line"/>
      <point x="197" y="700" type="line"/>
    </contour>
  </outline>
</glyph>
<glyph name="asciicircum" format="2">
  <advance width="600"/>
  <unicode hex="005E"/>
  <outline>
    <contour>
      <point x="123" y="350" type="line"/>
      <point x="176" y="350" type="line"/>
      <point x="390" y="646" type="line"/>
      <point x="477" y="350" type="line"/>
      <point x="523" y="350" type="line"/>
      <point x="421" y="700" type="line"/>
      <point x="376" y="700" type="line"/>
    </contour>
  </outline>
</glyph>
<glyph name="a" format="2">
  <advance width="600"/>
  <unicode hex="0061"/>
  <anchor x="332" y="481" name="top"/>
  <anchor x="424" y="0" name="bottom"/>
  <outline>
    <contour>
      <point x="233" y="-10" type="curve" smooth="yes"/>
      <point x="289" y="-10"/>
      <point x="339" y="10"/>
      <point x="387" y="50" type="curve"/>
      <point x="376" y="0" type="line"/>
      <point x="424" y="0" type="line"/>
      <point x="493" y="306" type="line" smooth="yes"/>
      <point x="518" y="419"/>
      <point x="456" y="489"/>
      <point x="334" y="489" type="curve" smooth="yes"/>
      <point x="273" y="489"/>
      <point x="218" y="473"/>
      <point x="159" y="444" type="curve"/>
      <point x="176" y="402" type="line"/>
      <point x="236" y="432"/>
      <point x="285" y="447"/>
      <point x="330" y="447" type="curve" smooth="yes"/>
      <point x="425" y="447"/>
      <point x="465" y="396"/>
      <point x="443" y="298" type="curve" smooth="yes"/>
      <point x="428" y="229" type="line"/>
      <point x="389" y="265"/>
      <point x="325" y="282"/>
      <point x="257" y="282" type="curve" smooth="yes"/>
      <point x="143" y="282"/>
      <point x="64" y="218"/>
      <point x="64" y="127" type="curve" smooth="yes"/>
      <point x="64" y="45"/>
      <point x="134" y="-10"/>
    </contour>
    <contour>
      <point x="112" y="130" type="curve" smooth="yes"/>
      <point x="112" y="194"/>
      <point x="173" y="240"/>
      <point x="260" y="240" type="curve" smooth="yes"/>
      <point x="321" y="240"/>
      <point x="373" y="227"/>
      <point x="419" y="189" type="curve"/>
      <point x="397" y="94" type="line"/>
      <point x="348" y="51"/>
      <point x="298" y="32"/>
      <point x="240" y="32" type="curve" smooth="yes"/>
      <point x="160" y="32"/>
      <point x="112" y="70"/>
    </contour>
  </outline>
</glyph>
<glyph name="e" format="2">
  <advance width="600"/>
  <unicode hex="0065"/>
  <anchor x="325" y="481" name="top"/>
  <anchor x="364" y="0" name="bottom"/>
  <outline>
    <contour>
      <point x="295" y="-10" type="curve" smooth="yes"/>
      <point x="359" y="-10"/>
      <point x="424" y="14"/>
      <point x="473" y="55" type="curve"/>
      <point x="446" y="94" type="line"/>
      <point x="391" y="53"/>
      <point x="346" y="36"/>
      <point x="293" y="36" type="curve" smooth="yes"/>
      <point x="192" y="36"/>
      <point x="114" y="128"/>
      <point x="125" y="231" type="curve"/>
      <point x="523" y="231" type="line"/>
      <point x="525" y="249"/>
      <point x="525" y="263"/>
      <point x="525" y="278" type="curve" smooth="yes"/>
      <point x="525" y="400"/>
      <point x="440" y="489"/>
      <point x="323" y="489" type="curve" smooth="yes"/>
      <point x="187" y="489"/>
      <point x="75" y="365"/>
      <point x="75" y="215" type="curve" smooth="yes"/>
      <point x="75" y="82"/>
      <point x="169" y="-10"/>
    </contour>
    <contour>
      <point x="130" y="272" type="line"/>
      <point x="152" y="370"/>
      <point x="228" y="443"/>
      <point x="320" y="443" type="curve" smooth="yes"/>
      <point x="411" y="443"/>
      <point x="481" y="368"/>
      <point x="473" y="272" type="curve"/>
    </contour>
  </outline>
</glyph>
<glyph name="f" format="2">
  <advance width="600"/>
  <unicode hex="0066"/>
  <guideline x="527" y="747" angle="90.0" identifier="NkpeIWGNrB"/>
  <outline>
    <contour>
      <point x="174" y="0" type="line"/>
      <point x="223" y="0" type="line"/>
      <point x="317" y="438" type="line"/>
      <point x="544" y="438" type="line"/>
      <point x="553" y="481" type="line"/>
      <point x="326" y="481" type="line"/>
      <point x="350" y="594" type="line" smooth="yes"/>
      <point x="366" y="669"/>
      <point x="402" y="694"/>
      <point x="467" y="694" type="curve" smooth="yes"/>
      <point x="510" y="694"/>
      <point x="548" y="686"/>
      <point x="593" y="668" type="curve"/>
      <point x="603" y="716" type="line"/>
      <point x="556" y="732"/>
      <point x="520" y="740"/>
      <point x="477" y="740" type="curve" smooth="yes"/>
      <point x="383" y="740"/>
      <point x="322" y="695"/>
      <point x="304" y="609" type="curve" smooth="yes"/>
      <point x="277" y="481" type="line"/>
      <point x="105" y="481" type="line"/>
      <point x="96" y="438" type="line"/>
      <point x="267" y="438" type="line"/>
    </contour>
  </outline>
</glyph>
<glyph name="g" format="2">
  <advance width="600"/>
  <unicode hex="0067"/>
  <anchor x="317" y="481" name="top"/>
  <outline>
    <contour>
      <point x="250" y="-219" type="curve" smooth="yes"/>
      <point x="347" y="-219"/>
      <point x="414" y="-162"/>
      <point x="436" y="-59" type="curve" smooth="yes"/>
      <point x="549" y="481" type="line"/>
      <point x="500" y="481" type="line"/>
      <point x="483" y="402" type="line"/>
      <point x="441" y="457"/>
      <point x="387" y="487"/>
      <point x="317" y="487" type="curve" smooth="yes"/>
      <point x="178" y="487"/>
      <point x="64" y="364"/>
      <point x="64" y="213" type="curve" smooth="yes"/>
      <point x="64" y="85"/>
      <point x="147" y="-8"/>
      <point x="267" y="-8" type="curve"/>
      <point x="322" y="-8"/>
      <point x="369" y="11"/>
      <point x="410" y="52" type="curve"/>
      <point x="389" y="-47" type="line" smooth="yes"/>
      <point x="372" y="-124"/>
      <point x="319" y="-172"/>
      <point x="247" y="-172" type="curve" smooth="yes"/>
      <point x="186" y="-172"/>
      <point x="132" y="-152"/>
      <point x="75" y="-109" type="curve"/>
      <point x="44" y="-149" type="line"/>
      <point x="96" y="-193"/>
      <point x="180" y="-219"/>
    </contour>
    <contour>
      <point x="283" y="38" type="curve"/>
      <point x="181" y="38"/>
      <point x="113" y="110"/>
      <point x="113" y="218" type="curve" smooth="yes"/>
      <point x="113" y="342"/>
      <point x="204" y="441"/>
      <point x="320" y="441" type="curve" smooth="yes"/>
      <point x="384" y="441"/>
      <point x="446" y="404"/>
      <point x="473" y="352" type="curve"/>
      <point x="420" y="97" type="line"/>
      <point x="381" y="57"/>
      <point x="336" y="38"/>
    </contour>
  </outline>
</glyph>
<glyph name="h" format="2">
  <advance width="600"/>
  <unicode hex="0068"/>
  <guideline x="276" y="662" angle="78.0" identifier="Ywkj6qlUvS"/>
  <guideline x="192" y="614" angle="78.0" identifier="YA6PRdAABp"/>
  <anchor x="283" y="700" name="top"/>
  <outline>
    <contour>
      <point x="62" y="0" type="line"/>
      <point x="111" y="0" type="line"/>
      <point x="189" y="370" type="line"/>
      <point x="230" y="422"/>
      <point x="282" y="446"/>
      <point x="344" y="446" type="curve" smooth="yes"/>
      <point x="428" y="446"/>
      <point x="474" y="381"/>
      <point x="453" y="284" type="curve" smooth="yes"/>
      <point x="392" y="0" type="line"/>
      <point x="441" y="0" type="line"/>
      <point x="502" y="286" type="line" smooth="yes"/>
      <point x="527" y="405"/>
      <point x="465" y="489"/>
      <point x="355" y="489" type="curve" smooth="yes"/>
      <point x="293" y="489"/>
      <point x="243" y="468"/>
      <point x="199" y="417" type="curve"/>
      <point x="266" y="737" type="line"/>
      <point x="215" y="725" type="line"/>
    </contour>
  </outline>
</glyph>
<glyph name="n" format="2">
  <advance width="600"/>
  <unicode hex="006E"/>
  <guideline x="506" y="273" angle="0.0" identifier="ekDTT1ueO0"/>
  <anchor x="356" y="481" name="top"/>
  <anchor x="241" y="0" name="bottom"/>
  <outline>
    <contour>
      <point x="59" y="0" type="line"/>
      <point x="108" y="0" type="line"/>
      <point x="187" y="367" type="line"/>
      <point x="227" y="420"/>
      <point x="280" y="445"/>
      <point x="344" y="445" type="curve" smooth="yes"/>
      <point x="428" y="445"/>
      <point x="474" y="381"/>
      <point x="453" y="283" type="curve" smooth="yes"/>
      <point x="392" y="0" type="line"/>
      <point x="441" y="0" type="line"/>
      <point x="502" y="286" type="line" smooth="yes"/>
      <point x="527" y="405"/>
      <point x="465" y="489"/>
      <point x="355" y="489" type="curve" smooth="yes"/>
      <point x="292" y="489"/>
      <point x="242" y="467"/>
      <point x="197" y="415" type="curve"/>
      <point x="211" y="481" type="line"/>
      <point x="162" y="481" type="line"/>
    </contour>
  </outline>
</glyph>
<glyph name="q" format="2">
  <advance width="600"/>
  <unicode hex="0071"/>
  <outline>
    <contour>
      <point x="352" y="-209" type="line"/>
      <point x="401" y="-209" type="line"/>
      <point x="549" y="481" type="line"/>
      <point x="500" y="481" type="line"/>
      <point x="483" y="404" type="line"/>
      <point x="441" y="457"/>
      <point x="386" y="487"/>
      <point x="317" y="487" type="curve" smooth="yes"/>
      <point x="178" y="487"/>
      <point x="64" y="364"/>
      <point x="64" y="213" type="curve" smooth="yes"/>
      <point x="64" y="85"/>
      <point x="147" y="-8"/>
      <point x="267" y="-8" type="curve" smooth="yes"/>
      <point x="321" y="-8"/>
      <point x="366" y="10"/>
      <point x="407" y="49" type="curve"/>
    </contour>
    <contour>
      <point x="283" y="38" type="curve" smooth="yes"/>
      <point x="181" y="38"/>
      <point x="113" y="110"/>
      <point x="113" y="218" type="curve" smooth="yes"/>
      <point x="113" y="342"/>
      <point x="204" y="441"/>
      <point x="320" y="441" type="curve" smooth="yes"/>
      <point x="384" y="441"/>
      <point x="445" y="405"/>
      <point x="472" y="354" type="curve"/>
      <point x="417" y="94" type="line"/>
      <point x="378" y="56"/>
      <point x="335" y="38"/>
    </contour>
  </outline>
</glyph>
<glyph name="r" format="2">
  <advance width="600"/>
  <unicode hex="0072"/>
  <anchor x="417" y="481" name="top"/>
  <anchor x="217" y="0" name="bottom"/>
  <outline>
    <contour>
      <point x="52" y="0" type="line"/>
      <point x="389" y="0" type="line"/>
      <point x="398" y="43" type="line"/>
      <point x="249" y="43" type="line"/>
      <point x="309" y="322" type="line"/>
      <point x="354" y="400"/>
      <point x="418" y="444"/>
      <point x="501" y="444" type="curve" smooth="yes"/>
      <point x="533" y="444"/>
      <point x="558" y="436"/>
      <point x="585" y="421" type="curve"/>
      <point x="595" y="467" type="line"/>
      <point x="566" y="481"/>
      <point x="534" y="489"/>
      <point x="501" y="489" type="curve" smooth="yes"/>
      <point x="423" y="489"/>
      <point x="361" y="446"/>
      <point x="321" y="376" type="curve"/>
      <point x="343" y="481" type="line"/>
      <point x="154" y="481" type="line"/>
      <point x="145" y="438" type="line"/>
      <point x="285" y="438" type="line"/>
      <point x="200" y="43" type="line"/>
      <point x="61" y="43" type="line"/>
    </contour>
  </outline>
</glyph>
<glyph name="u" format="2">
  <advance width="600"/>
  <unicode hex="0075"/>
  <anchor x="351" y="481" name="top"/>
  <anchor x="438" y="0" name="bottom"/>
  <outline>
    <contour>
      <point x="247" y="-8" type="curve" smooth="yes"/>
      <point x="310" y="-8"/>
      <point x="359" y="15"/>
      <point x="403" y="68" type="curve"/>
      <point x="389" y="0" type="line"/>
      <point x="438" y="0" type="line"/>
      <point x="541" y="481" type="line"/>
      <point x="492" y="481" type="line"/>
      <point x="414" y="115" type="line"/>
      <point x="373" y="62"/>
      <point x="322" y="36"/>
      <point x="258" y="36" type="curve" smooth="yes"/>
      <point x="174" y="36"/>
      <point x="129" y="100"/>
      <point x="150" y="198" type="curve" smooth="yes"/>
      <point x="211" y="481" type="line"/>
      <point x="162" y="481" type="line"/>
      <point x="101" y="195" type="line" smooth="yes"/>
      <point x="76" y="76"/>
      <point x="137" y="-8"/>
    </contour>
  </outline>
</glyph>
<glyph name="v" format="2">
  <advance width="600"/>
  <unicode hex="0076"/>
  <outline>
    <contour>
      <point x="223" y="0" type="line"/>
      <point x="268" y="0" type="line"/>
      <point x="584" y="481" type="line"/>
      <point x="526" y="481" type="line"/>
      <point x="258" y="62" type="line"/>
      <point x="165" y="481" type="line"/>
      <point x="118" y="481" type="line"/>
    </contour>
  </outline>
</glyph>
<glyph name="w" format="2">
  <advance width="600"/>
  <unicode hex="0077"/>
  <guideline x="316" y="75" angle="0.0" identifier="pHAQBMzM8L"/>
  <guideline x="348" y="481" angle="0.0" color="0.999,0.001,0.001,0.999" identifier="6gMS6SOYhM"/>
  <anchor x="348" y="481" name="top"/>
  <outline>
    <contour>
      <point x="95" y="0" type="line"/>
      <point x="144" y="0" type="line"/>
      <point x="337" y="409" type="line"/>
      <point x="353" y="0" type="line"/>
      <point x="401" y="0" type="line"/>
      <point x="606" y="481" type="line"/>
      <point x="557" y="481" type="line"/>
      <point x="392" y="73" type="line"/>
      <point x="372" y="481" type="line"/>
      <point x="325" y="481" type="line"/>
      <point x="135" y="75" type="line"/>
      <point x="141" y="481" type="line"/>
      <point x="95" y="481" type="line"/>
    </contour>
  </outline>
</glyph>
<glyph name="x" format="2">
  <advance width="600"/>
  <unicode hex="0078"/>
  <outline>
    <contour>
      <point x="19" y="0" type="line"/>
      <point x="82" y="0" type="line"/>
      <point x="300" y="215" type="line"/>
      <point x="422" y="0" type="line"/>
      <point x="479" y="0" type="line"/>
      <point x="336" y="244" type="line"/>
      <point x="578" y="481" type="line"/>
      <point x="515" y="481" type="line"/>
      <point x="313" y="282" type="line"/>
      <point x="200" y="481" type="line"/>
      <point x="143" y="481" type="line"/>
      <point x="277" y="253" type="line"/>
    </contour>
  </outline>
</glyph>
<glyph name="bar" format="2">
  <advance width="600"/>
  <unicode hex="007C"/>
  <outline>
    <contour>
      <point x="183" y="-209" type="line"/>
      <point x="229" y="-209" type="line"/>
      <point x="422" y="700" type="line"/>
      <point x="376" y="700" type="line"/>
    </contour>
  </outline>
</glyph>
<glyph name="asciitilde" format="2">
  <advance width="600"/>
  <unicode hex="007E"/>
  <outline>
    <contour>
      <point x="129" y="307" type="line"/>
      <point x="145" y="371"/>
      <point x="178" y="402"/>
      <point x="218" y="402" type="curve" smooth="yes"/>
      <point x="235" y="402"/>
      <point x="256" y="397"/>
      <point x="287" y="378" type="curve" smooth="yes"/>
      <point x="350" y="339" type="line" smooth="yes"/>
      <point x="383" y="319"/>
      <point x="414" y="310"/>
      <point x="439" y="310" type="curve" smooth="yes"/>
      <point x="501" y="310"/>
      <point x="555" y="359"/>
      <point x="571" y="446" type="curve"/>
      <point x="530" y="452" type="line"/>
      <point x="516" y="388"/>
      <point x="479" y="357"/>
      <point x="438" y="357" type="curve" smooth="yes"/>
      <point x="420" y="357"/>
      <point x="400" y="364"/>
      <point x="373" y="380" type="curve" smooth="yes"/>
      <point x="308" y="419" type="line" smooth="yes"/>
      <point x="273" y="440"/>
      <point x="246" y="449"/>
      <point x="222" y="449" type="curve" smooth="yes"/>
      <point x="160" y="449"/>
      <point x="105" y="399"/>
      <point x="88" y="312" type="curve"/>
    </contour>
  </outline>
</glyph>
<glyph name="exclamdown" format="2">
  <advance width="600"/>
  <unicode hex="00A1"/>
  <outline>
    <contour>
      <point x="332" y="284" type="line"/>
      <point x="291" y="284" type="line"/>
      <point x="172" y="-235" type="line"/>
      <point x="225" y="-235" type="line"/>
    </contour>
    <contour>
      <point x="350" y="500" type="curve" smooth="yes"/>
      <point x="320" y="500"/>
      <point x="291" y="471"/>
      <point x="291" y="439" type="curve" smooth="yes"/>
      <point x="291" y="412"/>
      <point x="311" y="392"/>
      <point x="338" y="392" type="curve" smooth="yes"/>
      <point x="368" y="392"/>
      <point x="397" y="421"/>
      <point x="397" y="453" type="curve" smooth="yes"/>
      <point x="397" y="480"/>
      <point x="377" y="500"/>
    </contour>
  </outline>
</glyph>
<glyph name="cent" format="2">
  <advance width="600"/>
  <unicode hex="00A2"/>
  <outline>
    <contour>
      <point x="200" y="-123" type="line"/>
      <point x="244" y="-123" type="line"/>
      <point x="268" y="-10" type="line"/>
      <point x="270" y="-10"/>
      <point x="272" y="-10"/>
      <point x="274" y="-10" type="curve" smooth="yes"/>
      <point x="351" y="-10"/>
      <point x="424" y="23"/>
      <point x="472" y="81" type="curve"/>
      <point x="435" y="108" type="line"/>
      <point x="397" y="64"/>
      <point x="340" y="36"/>
      <point x="278" y="36" type="curve"/>
      <point x="364" y="442" type="line"/>
      <point x="420" y="434"/>
      <point x="457" y="401"/>
      <point x="480" y="345" type="curve"/>
      <point x="526" y="362" type="line"/>
      <point x="503" y="430"/>
      <point x="444" y="477"/>
      <point x="374" y="487" type="curve"/>
      <point x="398" y="602" type="line"/>
      <point x="354" y="602" type="line"/>
      <point x="330" y="489" type="line"/>
      <point x="192" y="480"/>
      <point x="82" y="358"/>
      <point x="82" y="206" type="curve" smooth="yes"/>
      <point x="82" y="98"/>
      <point x="140" y="18"/>
      <point x="225" y="-4" type="curve"/>
    </contour>
    <contour>
      <point x="131" y="205" type="curve" smooth="yes"/>
      <point x="131" y="329"/>
      <point x="216" y="430"/>
      <point x="320" y="442" type="curve"/>
      <point x="235" y="42" type="line"/>
      <point x="173" y="61"/>
      <point x="131" y="123"/>
    </contour>
  </outline>
</glyph>
<glyph name="yen" format="2">
  <advance width="600"/>
  <unicode hex="00A5"/>
  <outline>
    <contour>
      <point x="222" y="0" type="line"/>
      <point x="273" y="0" type="line"/>
      <point x="302" y="138" type="line"/>
      <point x="486" y="138" type="line"/>
      <point x="495" y="182" type="line"/>
      <point x="312" y="182" type="line"/>
      <point x="330" y="266" type="line"/>
      <point x="513" y="266" type="line"/>
      <point x="522" y="310" type="line"/>
      <point x="357" y="310" type="line"/>
      <point x="670" y="700" type="line"/>
      <point x="609" y="700" type="line"/>
      <point x="317" y="331" type="line"/>
      <point x="179" y="700" type="line"/>
      <point x="126" y="700" type="line"/>
      <point x="274" y="310" type="line"/>
      <point x="107" y="310" type="line"/>
      <point x="98" y="266" type="line"/>
      <point x="279" y="266" type="line"/>
      <point x="261" y="182" type="line"/>
      <point x="80" y="182" type="line"/>
      <point x="71" y="138" type="line"/>
      <point x="251" y="138" type="line"/>
    </contour>
  </outline>
</glyph>
<glyph name="section" format="2">
  <advance width="600"/>
  <unicode hex="00A7"/>
  <outline>
    <contour>
      <point x="270" y="-49" type="curve" smooth="yes"/>
      <point x="362" y="-49"/>
      <point x="423" y="7"/>
      <point x="423" y="90" type="curve" smooth="yes"/>
      <point x="423" y="129"/>
      <point x="407" y="161"/>
      <point x="374" y="186" type="curve"/>
      <point x="463" y="198"/>
      <point x="515" y="245"/>
      <point x="515" y="316" type="curve" smooth="yes"/>
      <point x="515" y="374"/>
      <point x="486" y="413"/>
      <point x="415" y="448" type="curve" smooth="yes"/>
      <point x="320" y="495" type="line" smooth="yes"/>
      <point x="280" y="515"/>
      <point x="261" y="543"/>
      <point x="261" y="577" type="curve" smooth="yes"/>
      <point x="261" y="630"/>
      <point x="301" y="665"/>
      <point x="363" y="665" type="curve" smooth="yes"/>
      <point x="410" y="665"/>
      <point x="461" y="649"/>
      <point x="516" y="609" type="curve"/>
      <point x="543" y="647" type="line"/>
      <point x="492" y="687"/>
      <point x="426" y="711"/>
      <point x="369" y="711" type="curve" smooth="yes"/>
      <point x="277" y="711"/>
      <point x="215" y="655"/>
      <point x="215" y="572" type="curve" smooth="yes"/>
      <point x="215" y="531"/>
      <point x="232" y="499"/>
      <point x="266" y="473" type="curve"/>
      <point x="176" y="462"/>
      <point x="124" y="416"/>
      <point x="124" y="346" type="curve" smooth="yes"/>
      <point x="124" y="288"/>
      <point x="152" y="251"/>
      <point x="224" y="215" type="curve" smooth="yes"/>
      <point x="319" y="168" type="line" smooth="yes"/>
      <point x="359" y="148"/>
      <point x="377" y="119"/>
      <point x="377" y="84" type="curve" smooth="yes"/>
      <point x="377" y="31"/>
      <point x="338" y="-3"/>
      <point x="276" y="-3" type="curve" smooth="yes"/>
      <point x="228" y="-3"/>
      <point x="177" y="13"/>
      <point x="122" y="53" type="curve"/>
      <point x="94" y="15" type="line"/>
      <point x="145" y="-26"/>
      <point x="210" y="-49"/>
    </contour>
    <contour>
      <point x="326" y="214" type="curve"/>
      <point x="244" y="256" type="line" smooth="yes"/>
      <point x="193" y="282"/>
      <point x="170" y="310"/>
      <point x="170" y="347" type="curve" smooth="yes"/>
      <point x="170" y="406"/>
      <point x="224" y="441"/>
      <point x="320" y="444" type="curve"/>
      <point x="395" y="408" type="line" smooth="yes"/>
      <point x="444" y="385"/>
      <point x="469" y="354"/>
      <point x="469" y="316" type="curve" smooth="yes"/>
      <point x="469" y="255"/>
      <point x="417" y="219"/>
    </contour>
  </outline>
</glyph>
<glyph name="copyright" format="2">
  <advance width="600"/>
  <unicode hex="00A9"/>
  <outline>
    <contour>
      <point x="312" y="167" type="curve" smooth="yes"/>
      <point x="352" y="167"/>
      <point x="394" y="182"/>
      <point x="428" y="207" type="curve"/>
      <point x="408" y="240" type="line"/>
      <point x="377" y="218"/>
      <point x="348" y="207"/>
      <point x="318" y="207" type="curve" smooth="yes"/>
      <point x="259" y="207"/>
      <point x="210" y="247"/>
      <point x="210" y="326" type="curve" smooth="yes"/>
      <point x="210" y="424"/>
      <point x="274" y="493"/>
      <point x="343" y="493" type="curve" smooth="yes"/>
      <point x="385" y="493"/>
      <point x="418" y="466"/>
      <point x="441" y="433" type="curve"/>
      <point x="474" y="462" type="line"/>
      <point x="443" y="506"/>
      <point x="397" y="533"/>
      <point x="340" y="533" type="curve" smooth="yes"/>
      <point x="250" y="533"/>
      <point x="168" y="442"/>
      <point x="168" y="328" type="curve" smooth="yes"/>
      <point x="168" y="235"/>
      <point x="233" y="167"/>
    </contour>
    <contour>
      <point x="284" y="-11" type="curve" smooth="yes"/>
      <point x="455" y="-11"/>
      <point x="605" y="175"/>
      <point x="605" y="416" type="curve" smooth="yes"/>
      <point x="605" y="599"/>
      <point x="493" y="711"/>
      <point x="362" y="711" type="curve" smooth="yes"/>
      <point x="191" y="711"/>
      <point x="41" y="525"/>
      <point x="41" y="284" type="curve" smooth="yes"/>
      <point x="41" y="101"/>
      <point x="153" y="-11"/>
    </contour>
    <contour>
      <point x="287" y="30" type="curve" smooth="yes"/>
      <point x="168" y="30"/>
      <point x="84" y="141"/>
      <point x="84" y="290" type="curve" smooth="yes"/>
      <point x="84" y="511"/>
      <point x="223" y="670"/>
      <point x="359" y="670" type="curve" smooth="yes"/>
      <point x="478" y="670"/>
      <point x="562" y="559"/>
      <point x="562" y="410" type="curve" smooth="yes"/>
      <point x="562" y="189"/>
      <point x="423" y="30"/>
    </contour>
  </outline>
</glyph>
<glyph name="ordfeminine" format="2">
  <advance width="600"/>
  <unicode hex="00AA"/>
  <outline>
    <contour>
      <point x="306" y="327" type="curve" smooth="yes"/>
      <point x="348" y="327"/>
      <point x="386" y="340"/>
      <point x="422" y="366" type="curve"/>
      <point x="414" y="331" type="line"/>
      <point x="457" y="331" type="line"/>
      <point x="509" y="576" type="line" smooth="yes"/>
      <point x="526" y="659"/>
      <point x="473" y="711"/>
      <point x="373" y="711" type="curve" smooth="yes"/>
      <point x="334" y="711"/>
      <point x="301" y="704"/>
      <point x="246" y="682" type="curve"/>
      <point x="259" y="645" type="line"/>
      <point x="307" y="665"/>
      <point x="336" y="672"/>
      <point x="371" y="672" type="curve" smooth="yes"/>
      <point x="446" y="672"/>
      <point x="480" y="636"/>
      <point x="466" y="571" type="curve" smooth="yes"/>
      <point x="452" y="507" type="line"/>
      <point x="418" y="536"/>
      <point x="378" y="550"/>
      <point x="330" y="550" type="curve" smooth="yes"/>
      <point x="237" y="550"/>
      <point x="174" y="502"/>
      <point x="174" y="430" type="curve" smooth="yes"/>
      <point x="174" y="369"/>
      <point x="228" y="327"/>
    </contour>
    <contour>
      <point x="315" y="363" type="curve" smooth="yes"/>
      <point x="254" y="363"/>
      <point x="217" y="389"/>
      <point x="217" y="432" type="curve" smooth="yes"/>
      <point x="217" y="483"/>
      <point x="260" y="516"/>
      <point x="328" y="516" type="curve" smooth="yes"/>
      <point x="375" y="516"/>
      <point x="416" y="501"/>
      <point x="445" y="473" type="curve"/>
      <point x="429" y="401" type="line"/>
      <point x="396" y="375"/>
      <point x="360" y="363"/>
    </contour>
  </outline>
</glyph>
<glyph name="guillemotleft" format="2">
  <advance width="600"/>
  <unicode hex="00AB"/>
  <outline>
    <contour>
      <point x="234" y="0" type="line"/>
      <point x="287" y="0" type="line"/>
      <point x="111" y="236" type="line"/>
      <point x="389" y="481" type="line"/>
      <point x="327" y="481" type="line"/>
      <point x="49" y="241" type="line"/>
    </contour>
    <contour>
      <point x="447" y="0" type="line"/>
      <point x="500" y="0" type="line"/>
      <point x="324" y="236" type="line"/>
      <point x="602" y="481" type="line"/>
      <point x="540" y="481" type="line"/>
      <point x="262" y="241" type="line"/>
    </contour>
  </outline>
</glyph>
<glyph name="uni00AC" format="2">
  <advance width="600"/>
  <unicode hex="00AC"/>
  <outline>
    <contour>
      <point x="420" y="0" type="line"/>
      <point x="469" y="0" type="line"/>
      <point x="533" y="303" type="line"/>
      <point x="94" y="303" type="line"/>
      <point x="85" y="258" type="line"/>
      <point x="475" y="258" type="line"/>
    </contour>
  </outline>
</glyph>
<glyph name="registered" format="2">
  <advance width="600"/>
  <unicode hex="00AE"/>
  <outline>
    <contour>
      <point x="277" y="419" type="line"/>
      <point x="305" y="419" type="line"/>
      <point x="320" y="491" type="line"/>
      <point x="357" y="491" type="line"/>
      <point x="383" y="419" type="line"/>
      <point x="413" y="419" type="line"/>
      <point x="387" y="494" type="line"/>
      <point x="413" y="504"/>
      <point x="431" y="528"/>
      <point x="431" y="554" type="curve" smooth="yes"/>
      <point x="431" y="588"/>
      <point x="412" y="607"/>
      <point x="378" y="607" type="curve" smooth="yes"/>
      <point x="317" y="607" type="line"/>
    </contour>
    <contour>
      <point x="373" y="582" type="line" smooth="yes"/>
      <point x="394" y="582"/>
      <point x="402" y="572"/>
      <point x="402" y="552" type="curve" smooth="yes"/>
      <point x="402" y="529"/>
      <point x="388" y="516"/>
      <point x="366" y="516" type="curve" smooth="yes"/>
      <point x="326" y="516" type="line"/>
      <point x="340" y="582" type="line"/>
    </contour>
    <contour>
      <point x="340" y="313" type="curve" smooth="yes"/>
      <point x="452" y="313"/>
      <point x="545" y="412"/>
      <point x="545" y="535" type="curve" smooth="yes"/>
      <point x="545" y="636"/>
      <point x="477" y="711"/>
      <point x="378" y="711" type="curve" smooth="yes"/>
      <point x="266" y="711"/>
      <point x="173" y="612"/>
      <point x="173" y="490" type="curve" smooth="yes"/>
      <point x="173" y="388"/>
      <point x="241" y="313"/>
    </contour>
    <contour>
      <point x="341" y="343" type="curve" smooth="yes"/>
      <point x="258" y="343"/>
      <point x="204" y="401"/>
      <point x="204" y="490" type="curve" smooth="yes"/>
      <point x="204" y="595"/>
      <point x="283" y="681"/>
      <point x="377" y="681" type="curve" smooth="yes"/>
      <point x="460" y="681"/>
      <point x="514" y="623"/>
      <point x="514" y="535" type="curve" smooth="yes"/>
      <point x="514" y="429"/>
      <point x="435" y="343"/>
    </contour>
  </outline>
</glyph>
<glyph name="plusminus" format="2">
  <advance width="600"/>
  <unicode hex="00B1"/>
  <outline>
    <contour>
      <point x="57" y="-1" type="line"/>
      <point x="438" y="-1" type="line"/>
      <point x="448" y="44" type="line"/>
      <point x="67" y="44" type="line"/>
    </contour>
    <contour>
      <point x="261" y="165" type="line"/>
      <point x="306" y="165" type="line"/>
      <point x="345" y="347" type="line"/>
      <point x="512" y="347" type="line"/>
      <point x="522" y="392" type="line"/>
      <point x="354" y="392" type="line"/>
      <point x="393" y="574" type="line"/>
      <point x="348" y="574" type="line"/>
      <point x="309" y="392" type="line"/>
      <point x="141" y="392" type="line"/>
      <point x="131" y="347" type="line"/>
      <point x="300" y="347" type="line"/>
    </contour>
  </outline>
</glyph>
<glyph name="acute" format="2">
  <advance width="600"/>
  <unicode hex="00B4"/>
  <outline>
    <contour>
      <point x="327" y="579" type="line"/>
      <point x="377" y="579" type="line"/>
      <point x="529" y="695" type="line"/>
      <point x="453" y="695" type="line"/>
    </contour>
  </outline>
</glyph>
<glyph name="uni00B5" format="2">
  <advance width="600"/>
  <unicode hex="00B5"/>
  <outline>
    <contour>
      <point x="13" y="-209" type="line"/>
      <point x="62" y="-209" type="line"/>
      <point x="119" y="58" type="line"/>
      <point x="143" y="17"/>
      <point x="187" y="-8"/>
      <point x="247" y="-8" type="curve" smooth="yes"/>
      <point x="310" y="-8"/>
      <point x="359" y="15"/>
      <point x="403" y="68" type="curve"/>
      <point x="389" y="0" type="line"/>
      <point x="438" y="0" type="line"/>
      <point x="541" y="481" type="line"/>
      <point x="492" y="481" type="line"/>
      <point x="414" y="115" type="line"/>
      <point x="373" y="62"/>
      <point x="322" y="36"/>
      <point x="258" y="36" type="curve" smooth="yes"/>
      <point x="177" y="36"/>
      <point x="132" y="95"/>
      <point x="147" y="187" type="curve"/>
      <point x="210" y="481" type="line"/>
      <point x="161" y="481" type="line"/>
    </contour>
  </outline>
</glyph>
<glyph name="paragraph" format="2">
  <advance width="600"/>
  <unicode hex="00B6"/>
  <outline>
    <contour>
      <point x="255" y="0" type="line"/>
      <point x="306" y="0" type="line"/>
      <point x="370" y="302" type="line"/>
      <point x="490" y="302" type="line"/>
      <point x="426" y="0" type="line"/>
      <point x="477" y="0" type="line"/>
      <point x="626" y="700" type="line"/>
      <point x="337" y="700" type="line" smooth="yes"/>
      <point x="185" y="700"/>
      <point x="100" y="608"/>
      <point x="100" y="477" type="curve" smooth="yes"/>
      <point x="100" y="373"/>
      <point x="171" y="302"/>
      <point x="297" y="302" type="curve" smooth="yes"/>
      <point x="319" y="302" type="line"/>
    </contour>
    <contour>
      <point x="500" y="349" type="line"/>
      <point x="380" y="349" type="line"/>
      <point x="445" y="653" type="line"/>
      <point x="565" y="653" type="line"/>
    </contour>
    <contour>
      <point x="284" y="349" type="line" smooth="yes"/>
      <point x="201" y="349"/>
      <point x="151" y="399"/>
      <point x="151" y="481" type="curve" smooth="yes"/>
      <point x="151" y="582"/>
      <point x="219" y="653"/>
      <point x="322" y="653" type="curve" smooth="yes"/>
      <point x="394" y="653" type="line"/>
      <point x="329" y="349" type="line"/>
    </contour>
  </outline>
</glyph>
<glyph name="ordmasculine" format="2">
  <advance width="600"/>
  <unicode hex="00BA"/>
  <outline>
    <contour>
      <point x="342" y="323" type="curve" smooth="yes"/>
      <point x="452" y="323"/>
      <point x="548" y="423"/>
      <point x="548" y="540" type="curve" smooth="yes"/>
      <point x="548" y="638"/>
      <point x="473" y="711"/>
      <point x="375" y="711" type="curve" smooth="yes"/>
      <point x="265" y="711"/>
      <point x="170" y="611"/>
      <point x="170" y="494" type="curve" smooth="yes"/>
      <point x="170" y="396"/>
      <point x="244" y="323"/>
    </contour>
    <contour>
      <point x="342" y="364" type="curve" smooth="yes"/>
      <point x="269" y="364"/>
      <point x="216" y="422"/>
      <point x="216" y="499" type="curve" smooth="yes"/>
      <point x="216" y="583"/>
      <point x="281" y="670"/>
      <point x="376" y="670" type="curve" smooth="yes"/>
      <point x="449" y="670"/>
      <point x="502" y="612"/>
      <point x="502" y="535" type="curve" smooth="yes"/>
      <point x="502" y="451"/>
      <point x="437" y="364"/>
    </contour>
  </outline>
</glyph>
<glyph name="onequarter" format="2">
  <advance width="600"/>
  <unicode hex="00BC"/>
  <outline>
    <contour>
      <point x="150" y="418" type="line"/>
      <point x="189" y="418" type="line"/>
      <point x="249" y="700" type="line"/>
      <point x="223" y="700" type="line"/>
      <point x="150" y="672" type="line"/>
      <point x="143" y="635" type="line"/>
      <point x="201" y="656" type="line"/>
    </contour>
    <contour>
      <point x="420" y="0" type="line"/>
      <point x="459" y="0" type="line"/>
      <point x="474" y="71" type="line"/>
      <point x="507" y="71" type="line"/>
      <point x="515" y="105" type="line"/>
      <point x="481" y="105" type="line"/>
      <point x="519" y="282" type="line"/>
      <point x="472" y="282" type="line"/>
      <point x="280" y="105" type="line"/>
      <point x="273" y="71" type="line"/>
      <point x="435" y="71" type="line"/>
    </contour>
    <contour>
      <point x="329" y="105" type="line"/>
      <point x="468" y="232" type="line"/>
      <point x="442" y="105" type="line"/>
    </contour>
    <component base="fraction" xOffset="17"/>
  </outline>
</glyph>
<glyph name="onehalf" format="2">
  <advance width="600"/>
  <unicode hex="00BD"/>
  <outline>
    <contour>
      <point x="150" y="418" type="line"/>
      <point x="189" y="418" type="line"/>
      <point x="249" y="700" type="line"/>
      <point x="223" y="700" type="line"/>
      <point x="150" y="672" type="line"/>
      <point x="143" y="635" type="line"/>
      <point x="201" y="656" type="line"/>
    </contour>
    <contour>
      <point x="290" y="0" type="line"/>
      <point x="484" y="0" type="line"/>
      <point x="491" y="35" type="line"/>
      <point x="356" y="35" type="line"/>
      <point x="455" y="112" type="line" smooth="yes"/>
      <point x="512" y="156"/>
      <point x="528" y="182"/>
      <point x="528" y="214" type="curve" smooth="yes"/>
      <point x="528" y="261"/>
      <point x="492" y="287"/>
      <point x="443" y="287" type="curve" smooth="yes"/>
      <point x="401" y="287"/>
      <point x="357" y="268"/>
      <point x="330" y="241" type="curve"/>
      <point x="351" y="215" type="line"/>
      <point x="386" y="242"/>
      <point x="414" y="251"/>
      <point x="439" y="251" type="curve" smooth="yes"/>
      <point x="473" y="251"/>
      <point x="487" y="233"/>
      <point x="487" y="209" type="curve" smooth="yes"/>
      <point x="487" y="186"/>
      <point x="474" y="170"/>
      <point x="435" y="139" type="curve" smooth="yes"/>
      <point x="296" y="30" type="line"/>
    </contour>
    <component base="fraction" xOffset="25"/>
  </outline>
</glyph>
<glyph name="AE" format="2">
  <advance width="600"/>
  <unicode hex="00C6"/>
  <outline>
    <contour>
      <point x="-42" y="0" type="line"/>
      <point x="21" y="0" type="line"/>
      <point x="122" y="182" type="line"/>
      <point x="275" y="182" type="line"/>
      <point x="236" y="0" type="line"/>
      <point x="518" y="0" type="line"/>
      <point x="528" y="47" type="line"/>
      <point x="299" y="47" type="line"/>
      <point x="359" y="330" type="line"/>
      <point x="509" y="330" type="line"/>
      <point x="519" y="377" type="line"/>
      <point x="369" y="377" type="line"/>
      <point x="428" y="653" type="line"/>
      <point x="654" y="653" type="line"/>
      <point x="664" y="700" type="line"/>
      <point x="354" y="700" type="line"/>
    </contour>
    <contour>
      <point x="145" y="224" type="line"/>
      <point x="371" y="633" type="line"/>
      <point x="284" y="224" type="line"/>
    </contour>
  </outline>
</glyph>
<glyph name="Ccedilla" format="2">
  <advance width="600"/>
  <unicode hex="00C7"/>
  <outline>
    <contour>
      <point x="248" y="-235" type="curve"/>
      <point x="310" y="-235"/>
      <point x="358" y="-195"/>
      <point x="358" y="-138" type="curve"/>
      <point x="358" y="-99"/>
      <point x="330" y="-72"/>
      <point x="277" y="-68" type="curve"/>
      <point x="302" y="-10" type="line"/>
      <point x="409" y="-2"/>
      <point x="503" y="73"/>
      <point x="555" y="198" type="curve"/>
      <point x="507" y="216" type="line"/>
      <point x="459" y="102"/>
      <point x="378" y="37"/>
      <point x="284" y="37" type="curve" smooth="yes"/>
      <point x="181" y="37"/>
      <point x="110" y="128"/>
      <point x="110" y="277" type="curve" smooth="yes"/>
      <point x="110" y="513"/>
      <point x="243" y="663"/>
      <point x="378" y="663" type="curve" smooth="yes"/>
      <point x="470" y="663"/>
      <point x="532" y="603"/>
      <point x="553" y="490" type="curve"/>
      <point x="603" y="500" type="line"/>
      <point x="580" y="634"/>
      <point x="496" y="711"/>
      <point x="377" y="711" type="curve" smooth="yes"/>
      <point x="223" y="711"/>
      <point x="59" y="555"/>
      <point x="59" y="276" type="curve" smooth="yes"/>
      <point x="59" y="101"/>
      <point x="146" y="-3"/>
      <point x="269" y="-11" type="curve"/>
      <point x="231" y="-96" type="line"/>
      <point x="255" y="-96" type="line" smooth="yes"/>
      <point x="296" y="-96"/>
      <point x="323" y="-113"/>
      <point x="323" y="-144" type="curve"/>
      <point x="323" y="-178"/>
      <point x="296" y="-204"/>
      <point x="246" y="-204" type="curve"/>
      <point x="217" y="-204"/>
      <point x="194" y="-194"/>
      <point x="173" y="-171" type="curve"/>
      <point x="149" y="-195" type="line"/>
      <point x="167" y="-217"/>
      <point x="202" y="-235"/>
    </contour>
  </outline>
</glyph>
<glyph name="Oslash" format="2">
  <advance width="600"/>
  <unicode hex="00D8"/>
  <outline>
    <contour>
      <point x="-6" y="0" type="line"/>
      <point x="53" y="0" type="line"/>
      <point x="111" y="68" type="line"/>
      <point x="148" y="18"/>
      <point x="203" y="-11"/>
      <point x="269" y="-11" type="curve" smooth="yes"/>
      <point x="440" y="-11"/>
      <point x="588" y="198"/>
      <point x="588" y="441" type="curve" smooth="yes"/>
      <point x="588" y="499"/>
      <point x="578" y="549"/>
      <point x="559" y="590" type="curve"/>
      <point x="653" y="700" type="line"/>
      <point x="594" y="700" type="line"/>
      <point x="535" y="631" type="line"/>
      <point x="498" y="682"/>
      <point x="444" y="711"/>
      <point x="377" y="711" type="curve" smooth="yes"/>
      <point x="206" y="711"/>
      <point x="58" y="502"/>
      <point x="58" y="259" type="curve" smooth="yes"/>
      <point x="58" y="201"/>
      <point x="68" y="150"/>
      <point x="87" y="109" type="curve"/>
    </contour>
    <contour>
      <point x="109" y="259" type="curve" smooth="yes"/>
      <point x="109" y="474"/>
      <point x="234" y="663"/>
      <point x="376" y="663" type="curve" smooth="yes"/>
      <point x="430" y="663"/>
      <point x="473" y="637"/>
      <point x="501" y="591" type="curve"/>
      <point x="125" y="153" type="line"/>
      <point x="115" y="183"/>
      <point x="109" y="219"/>
    </contour>
    <contour>
      <point x="270" y="37" type="curve" smooth="yes"/>
      <point x="217" y="37"/>
      <point x="174" y="63"/>
      <point x="146" y="108" type="curve"/>
      <point x="521" y="546" type="line"/>
      <point x="532" y="516"/>
      <point x="537" y="481"/>
      <point x="537" y="441" type="curve" smooth="yes"/>
      <point x="537" y="226"/>
      <point x="412" y="37"/>
    </contour>
  </outline>
</glyph>
<glyph name="germandbls" format="2">
  <advance width="600"/>
  <unicode hex="00DF"/>
  <outline>
    <contour>
      <point x="355" y="-10" type="curve"/>
      <point x="458" y="-10"/>
      <point x="531" y="52"/>
      <point x="531" y="132" type="curve" smooth="yes"/>
      <point x="531" y="293"/>
      <point x="324" y="244"/>
      <point x="324" y="352" type="curve" smooth="yes"/>
      <point x="324" y="435"/>
      <point x="543" y="425"/>
      <point x="543" y="582" type="curve" smooth="yes"/>
      <point x="543" y="668"/>
      <point x="475" y="737"/>
      <point x="375" y="737" type="curve" smooth="yes"/>
      <point x="255" y="737"/>
      <point x="171" y="665"/>
      <point x="140" y="521" type="curve" smooth="yes"/>
      <point x="28" y="0" type="line"/>
      <point x="77" y="0" type="line"/>
      <point x="188" y="516" type="line" smooth="yes"/>
      <point x="214" y="636"/>
      <point x="279" y="691"/>
      <point x="378" y="691" type="curve" smooth="yes"/>
      <point x="448" y="691"/>
      <point x="496" y="642"/>
      <point x="496" y="586" type="curve" smooth="yes"/>
      <point x="496" y="449"/>
      <point x="277" y="476"/>
      <point x="277" y="346" type="curve" smooth="yes"/>
      <point x="277" y="213"/>
      <point x="484" y="252"/>
      <point x="484" y="137" type="curve" smooth="yes"/>
      <point x="484" y="78"/>
      <point x="433" y="36"/>
      <point x="355" y="36" type="curve"/>
      <point x="298" y="36"/>
      <point x="247" y="54"/>
      <point x="220" y="92" type="curve"/>
      <point x="182" y="66" type="line"/>
      <point x="218" y="15"/>
      <point x="285" y="-10"/>
    </contour>
  </outline>
</glyph>
<glyph name="divide" format="2">
  <advance width="600"/>
  <unicode hex="00F7"/>
  <outline>
    <contour>
      <point x="130" y="335" type="line"/>
      <point x="511" y="335" type="line"/>
      <point x="521" y="380" type="line"/>
      <point x="140" y="380" type="line"/>
    </contour>
    <contour>
      <point x="280" y="142" type="curve" smooth="yes"/>
      <point x="308" y="142"/>
      <point x="331" y="166"/>
      <point x="331" y="194" type="curve" smooth="yes"/>
      <point x="331" y="212"/>
      <point x="314" y="228"/>
      <point x="294" y="228" type="curve" smooth="yes"/>
      <point x="266" y="228"/>
      <point x="243" y="204"/>
      <point x="243" y="176" type="curve" smooth="yes"/>
      <point x="243" y="158"/>
      <point x="260" y="142"/>
    </contour>
    <contour>
      <point x="354" y="490" type="curve" smooth="yes"/>
      <point x="382" y="490"/>
      <point x="405" y="514"/>
      <point x="405" y="542" type="curve" smooth="yes"/>
      <point x="405" y="560"/>
      <point x="388" y="576"/>
      <point x="368" y="576" type="curve" smooth="yes"/>
      <point x="340" y="576"/>
      <point x="317" y="552"/>
      <point x="317" y="524" type="curve" smooth="yes"/>
      <point x="317" y="506"/>
      <point x="334" y="490"/>
    </contour>
  </outline>
</glyph>
<glyph name="oslash" format="2">
  <advance width="600"/>
  <unicode hex="00F8"/>
  <outline>
    <contour>
      <point x="266" y="-10" type="curve" smooth="yes"/>
      <point x="408" y="-10"/>
      <point x="526" y="121"/>
      <point x="526" y="278" type="curve" smooth="yes"/>
      <point x="526" y="330"/>
      <point x="512" y="375"/>
      <point x="488" y="410" type="curve"/>
      <point x="554" y="481" type="line"/>
      <point x="497" y="481" type="line"/>
      <point x="460" y="442" type="line"/>
      <point x="427" y="472"/>
      <point x="384" y="489"/>
      <point x="334" y="489" type="curve" smooth="yes"/>
      <point x="192" y="489"/>
      <point x="74" y="358"/>
      <point x="74" y="201" type="curve" smooth="yes"/>
      <point x="74" y="150"/>
      <point x="88" y="105"/>
      <point x="112" y="70" type="curve"/>
      <point x="46" y="0" type="line"/>
      <point x="103" y="0" type="line"/>
      <point x="139" y="38" type="line"/>
      <point x="172" y="8"/>
      <point x="216" y="-10"/>
    </contour>
    <contour>
      <point x="146" y="107" type="line"/>
      <point x="131" y="133"/>
      <point x="123" y="165"/>
      <point x="123" y="202" type="curve" smooth="yes"/>
      <point x="123" y="335"/>
      <point x="218" y="443"/>
      <point x="332" y="443" type="curve" smooth="yes"/>
      <point x="370" y="443"/>
      <point x="403" y="430"/>
      <point x="427" y="407" type="curve"/>
    </contour>
    <contour>
      <point x="268" y="36" type="curve" smooth="yes"/>
      <point x="229" y="36"/>
      <point x="196" y="49"/>
      <point x="172" y="73" type="curve"/>
      <point x="453" y="374" type="line"/>
      <point x="469" y="347"/>
      <point x="477" y="314"/>
      <point x="477" y="277" type="curve" smooth="yes"/>
      <point x="477" y="144"/>
      <point x="382" y="36"/>
    </contour>
  </outline>
</glyph>
<glyph name="Aogonek" format="2">
  <advance width="600"/>
  <unicode hex="0104"/>
  <outline>
    <contour>
      <point x="-31" y="0" type="line"/>
      <point x="28" y="0" type="line"/>
      <point x="144" y="210" type="line"/>
      <point x="450" y="210" type="line"/>
      <point x="478" y="0" type="line"/>
      <point x="479" y="0" type="line"/>
      <point x="392" y="-49"/>
      <point x="352" y="-98"/>
      <point x="352" y="-154" type="curve" smooth="yes"/>
      <point x="352" y="-195"/>
      <point x="384" y="-232"/>
      <point x="449" y="-232" type="curve" smooth="yes"/>
      <point x="470" y="-232"/>
      <point x="491" y="-227"/>
      <point x="506" y="-220" type="curve"/>
      <point x="503" y="-188" type="line"/>
      <point x="490" y="-193"/>
      <point x="471" y="-197"/>
      <point x="457" y="-197" type="curve" smooth="yes"/>
      <point x="419" y="-197"/>
      <point x="392" y="-176"/>
      <point x="392" y="-146" type="curve" smooth="yes"/>
      <point x="392" y="-102"/>
      <point x="423" y="-56"/>
      <point x="529" y="0" type="curve"/>
      <point x="433" y="700" type="line"/>
      <point x="361" y="700" type="line"/>
    </contour>
    <contour>
      <point x="167" y="252" type="line"/>
      <point x="390" y="658" type="line"/>
      <point x="444" y="252" type="line"/>
    </contour>
  </outline>
</glyph>
<glyph name="eogonek" format="2">
  <advance width="600"/>
  <unicode hex="0119"/>
  <outline>
    <contour>
      <point x="284" y="-232" type="curve" smooth="yes"/>
      <point x="305" y="-232"/>
      <point x="326" y="-227"/>
      <point x="341" y="-220" type="curve"/>
      <point x="338" y="-188" type="line"/>
      <point x="325" y="-193"/>
      <point x="306" y="-197"/>
      <point x="292" y="-197" type="curve" smooth="yes"/>
      <point x="254" y="-197"/>
      <point x="227" y="-176"/>
      <point x="227" y="-146" type="curve" smooth="yes"/>
      <point x="227" y="-102"/>
      <point x="257" y="-57"/>
      <point x="361" y="-2" type="curve"/>
      <point x="402" y="9"/>
      <point x="441" y="28"/>
      <point x="473" y="55" type="curve"/>
      <point x="446" y="94" type="line"/>
      <point x="391" y="53"/>
      <point x="346" y="36"/>
      <point x="293" y="36" type="curve" smooth="yes"/>
      <point x="192" y="36"/>
      <point x="114" y="128"/>
      <point x="125" y="231" type="curve"/>
      <point x="523" y="231" type="line"/>
      <point x="525" y="249"/>
      <point x="525" y="263"/>
      <point x="525" y="278" type="curve" smooth="yes"/>
      <point x="525" y="400"/>
      <point x="440" y="489"/>
      <point x="323" y="489" type="curve" smooth="yes"/>
      <point x="187" y="489"/>
      <point x="75" y="365"/>
      <point x="75" y="215" type="curve" smooth="yes"/>
      <point x="75" y="82"/>
      <point x="168" y="-9"/>
      <point x="294" y="-10" type="curve"/>
      <point x="222" y="-55"/>
      <point x="187" y="-103"/>
      <point x="187" y="-154" type="curve" smooth="yes"/>
      <point x="187" y="-195"/>
      <point x="219" y="-232"/>
    </contour>
    <contour>
      <point x="130" y="272" type="line"/>
      <point x="152" y="370"/>
      <point x="228" y="443"/>
      <point x="320" y="443" type="curve" smooth="yes"/>
      <point x="411" y="443"/>
      <point x="481" y="368"/>
      <point x="473" y="272" type="curve"/>
    </contour>
  </outline>
</glyph>
<glyph name="hcircumflex" format="2">
  <advance width="600"/>
  <unicode hex="0125"/>
  <guideline x="185" y="585" angle="78.0" identifier="27ulxTKCfc"/>
  <outline>
    <contour>
      <point x="62" y="0" type="line"/>
      <point x="111" y="0" type="line"/>
      <point x="190" y="371" type="line"/>
      <point x="231" y="422"/>
      <point x="282" y="446"/>
      <point x="344" y="446" type="curve" smooth="yes"/>
      <point x="428" y="446"/>
      <point x="474" y="381"/>
      <point x="453" y="284" type="curve" smooth="yes"/>
      <point x="392" y="0" type="line"/>
      <point x="441" y="0" type="line"/>
      <point x="502" y="286" type="line" smooth="yes"/>
      <point x="527" y="405"/>
      <point x="465" y="489"/>
      <point x="355" y="489" type="curve" smooth="yes"/>
      <point x="294" y="489"/>
      <point x="244" y="468"/>
      <point x="199" y="418" type="curve"/>
      <point x="265" y="727" type="line"/>
      <point x="216" y="727" type="line"/>
    </contour>
    <component base="circumflex" xOffset="-119" yOffset="219"/>
  </outline>
</glyph>
<glyph name="Hbar" format="2">
  <advance width="600"/>
  <unicode hex="0126"/>
  <outline>
    <contour>
      <point x="28" y="0" type="line"/>
      <point x="79" y="0" type="line"/>
      <point x="149" y="329" type="line"/>
      <point x="489" y="329" type="line"/>
      <point x="419" y="0" type="line"/>
      <point x="470" y="0" type="line"/>
      <point x="583" y="529" type="line"/>
      <point x="654" y="529" type="line"/>
      <point x="664" y="573" type="line"/>
      <point x="592" y="573" type="line"/>
      <point x="619" y="700" type="line"/>
      <point x="568" y="700" type="line"/>
      <point x="541" y="573" type="line"/>
      <point x="201" y="573" type="line"/>
      <point x="228" y="700" type="line"/>
      <point x="177" y="700" type="line"/>
      <point x="150" y="573" type="line"/>
      <point x="78" y="573" type="line"/>
      <point x="68" y="529" type="line"/>
      <point x="141" y="529" type="line"/>
    </contour>
    <contour>
      <point x="159" y="376" type="line"/>
      <point x="192" y="529" type="line"/>
      <point x="532" y="529" type="line"/>
      <point x="499" y="376" type="line"/>
    </contour>
  </outline>
</glyph>
<glyph name="hbar" format="2">
  <advance width="600"/>
  <unicode hex="0127"/>
  <outline>
    <contour>
      <point x="62" y="0" type="line"/>
      <point x="111" y="0" type="line"/>
      <point x="189" y="370" type="line"/>
      <point x="230" y="422"/>
      <point x="282" y="446"/>
      <point x="344" y="446" type="curve" smooth="yes"/>
      <point x="428" y="446"/>
      <point x="474" y="381"/>
      <point x="453" y="284" type="curve" smooth="yes"/>
      <point x="392" y="0" type="line"/>
      <point x="441" y="0" type="line"/>
      <point x="502" y="286" type="line" smooth="yes"/>
      <point x="527" y="405"/>
      <point x="465" y="489"/>
      <point x="355" y="489" type="curve" smooth="yes"/>
      <point x="293" y="489"/>
      <point x="243" y="468"/>
      <point x="199" y="417" type="curve"/>
      <point x="232" y="576" type="line"/>
      <point x="388" y="576" type="line"/>
      <point x="396" y="616" type="line"/>
      <point x="241" y="616" type="line"/>
      <point x="266" y="737" type="line"/>
      <point x="215" y="725" type="line"/>
      <point x="192" y="616" type="line"/>
      <point x="110" y="616" type="line"/>
      <point x="102" y="576" type="line"/>
      <point x="184" y="576" type="line"/>
    </contour>
  </outline>
</glyph>
<glyph name="Iogonek" format="2">
  <advance width="600"/>
  <unicode hex="012E"/>
  <outline>
    <contour>
      <point x="38" y="0" type="line"/>
      <point x="405" y="0" type="line"/>
      <point x="312" y="-55"/>
      <point x="283" y="-107"/>
      <point x="283" y="-154" type="curve" smooth="yes"/>
      <point x="283" y="-195"/>
      <point x="315" y="-232"/>
      <point x="380" y="-232" type="curve" smooth="yes"/>
      <point x="401" y="-232"/>
      <point x="422" y="-227"/>
      <point x="437" y="-220" type="curve"/>
      <point x="434" y="-188" type="line"/>
      <point x="421" y="-193"/>
      <point x="402" y="-197"/>
      <point x="388" y="-197" type="curve" smooth="yes"/>
      <point x="350" y="-197"/>
      <point x="323" y="-176"/>
      <point x="323" y="-146" type="curve" smooth="yes"/>
      <point x="323" y="-102"/>
      <point x="354" y="-56"/>
      <point x="460" y="0" type="curve"/>
      <point x="470" y="47" type="line"/>
      <point x="284" y="47" type="line"/>
      <point x="413" y="653" type="line"/>
      <point x="599" y="653" type="line"/>
      <point x="609" y="700" type="line"/>
      <point x="187" y="700" type="line"/>
      <point x="177" y="653" type="line"/>
      <point x="362" y="653" type="line"/>
      <point x="233" y="47" type="line"/>
      <point x="48" y="47" type="line"/>
    </contour>
  </outline>
</glyph>
<glyph name="iogonek" format="2">
  <advance width="600"/>
  <unicode hex="012F"/>
  <outline>
    <contour>
      <point x="371" y="605" type="curve" smooth="yes"/>
      <point x="403" y="605"/>
      <point x="429" y="631"/>
      <point x="429" y="660" type="curve" smooth="yes"/>
      <point x="429" y="687"/>
      <point x="406" y="710"/>
      <point x="379" y="710" type="curve" smooth="yes"/>
      <point x="348" y="710"/>
      <point x="322" y="683"/>
      <point x="322" y="655" type="curve" smooth="yes"/>
      <point x="322" y="626"/>
      <point x="343" y="605"/>
    </contour>
    <contour>
      <point x="353" y="-232" type="curve" smooth="yes"/>
      <point x="374" y="-232"/>
      <point x="395" y="-227"/>
      <point x="410" y="-220" type="curve"/>
      <point x="407" y="-188" type="line"/>
      <point x="394" y="-193"/>
      <point x="375" y="-197"/>
      <point x="361" y="-197" type="curve" smooth="yes"/>
      <point x="323" y="-197"/>
      <point x="296" y="-176"/>
      <point x="296" y="-146" type="curve" smooth="yes"/>
      <point x="296" y="-103"/>
      <point x="326" y="-58"/>
      <point x="426" y="-4" type="curve"/>
      <point x="436" y="-1"/>
      <point x="445" y="2"/>
      <point x="455" y="5" type="curve"/>
      <point x="465" y="50" type="line"/>
      <point x="432" y="38"/>
      <point x="407" y="33"/>
      <point x="379" y="33" type="curve" smooth="yes"/>
      <point x="304" y="33"/>
      <point x="277" y="63"/>
      <point x="292" y="130" type="curve" smooth="yes"/>
      <point x="368" y="481" type="line"/>
      <point x="136" y="481" type="line"/>
      <point x="127" y="438" type="line"/>
      <point x="310" y="438" type="line"/>
      <point x="243" y="132" type="line" smooth="yes"/>
      <point x="224" y="44"/>
      <point x="267" y="-7"/>
      <point x="362" y="-10" type="curve"/>
      <point x="282" y="-62"/>
      <point x="256" y="-110"/>
      <point x="256" y="-154" type="curve" smooth="yes"/>
      <point x="256" y="-195"/>
      <point x="288" y="-232"/>
    </contour>
  </outline>
</glyph>
<glyph name="IJ" format="2">
  <advance width="600"/>
  <unicode hex="0132"/>
  <outline>
    <contour>
      <point x="328" y="-11" type="curve"/>
      <point x="442" y="-11"/>
      <point x="496" y="55"/>
      <point x="523" y="180" type="curve" smooth="yes"/>
      <point x="634" y="700" type="line"/>
      <point x="583" y="700" type="line"/>
      <point x="473" y="185" type="line" smooth="yes"/>
      <point x="450" y="78"/>
      <point x="406" y="35"/>
      <point x="329" y="35" type="curve"/>
      <point x="282" y="35"/>
      <point x="250" y="52"/>
      <point x="224" y="76" type="curve"/>
      <point x="187" y="43" type="line"/>
      <point x="211" y="12"/>
      <point x="263" y="-11"/>
    </contour>
    <contour>
      <point x="28" y="0" type="line"/>
      <point x="79" y="0" type="line"/>
      <point x="228" y="700" type="line"/>
      <point x="177" y="700" type="line"/>
    </contour>
  </outline>
</glyph>
<glyph name="ij" format="2">
  <advance width="600"/>
  <unicode hex="0133"/>
  <outline>
    <contour>
      <point x="251" y="605" type="curve" smooth="yes"/>
      <point x="283" y="605"/>
      <point x="308" y="631"/>
      <point x="308" y="660" type="curve" smooth="yes"/>
      <point x="308" y="687"/>
      <point x="286" y="710"/>
      <point x="259" y="710" type="curve" smooth="yes"/>
      <point x="228" y="710"/>
      <point x="201" y="683"/>
      <point x="201" y="655" type="curve" smooth="yes"/>
      <point x="201" y="626"/>
      <point x="223" y="605"/>
    </contour>
    <contour>
      <point x="509" y="605" type="curve" smooth="yes"/>
      <point x="541" y="605"/>
      <point x="567" y="631"/>
      <point x="567" y="660" type="curve" smooth="yes"/>
      <point x="567" y="687"/>
      <point x="544" y="710"/>
      <point x="517" y="710" type="curve" smooth="yes"/>
      <point x="486" y="710"/>
      <point x="459" y="683"/>
      <point x="459" y="655" type="curve" smooth="yes"/>
      <point x="459" y="626"/>
      <point x="481" y="605"/>
    </contour>
    <contour>
      <point x="89" y="0" type="line"/>
      <point x="138" y="0" type="line"/>
      <point x="243" y="481" type="line"/>
      <point x="194" y="481" type="line"/>
    </contour>
    <contour>
      <point x="255" y="-219" type="curve"/>
      <point x="318" y="-219"/>
      <point x="362" y="-179"/>
      <point x="377" y="-110" type="curve" smooth="yes"/>
      <point x="503" y="481" type="line"/>
      <point x="454" y="481" type="line"/>
      <point x="329" y="-105" type="line" smooth="yes"/>
      <point x="319" y="-153"/>
      <point x="300" y="-173"/>
      <point x="261" y="-173" type="curve"/>
      <point x="249" y="-173"/>
      <point x="235" y="-171"/>
      <point x="224" y="-166" type="curve"/>
      <point x="214" y="-213" type="line"/>
      <point x="226" y="-217"/>
      <point x="242" y="-219"/>
    </contour>
  </outline>
</glyph>
<glyph name="kgreenlandic" format="2">
  <advance width="600"/>
  <unicode hex="0138"/>
  <outline>
    <contour>
      <point x="76" y="0" type="line"/>
      <point x="125" y="0" type="line"/>
      <point x="178" y="248" type="line"/>
      <point x="421" y="0" type="line"/>
      <point x="487" y="0" type="line"/>
      <point x="237" y="249" type="line"/>
      <point x="578" y="481" type="line"/>
      <point x="504" y="481" type="line"/>
      <point x="182" y="264" type="line"/>
      <point x="228" y="481" type="line"/>
      <point x="179" y="481" type="line"/>
    </contour>
  </outline>
</glyph>
<glyph name="lslash" format="2">
  <advance width="600"/>
  <unicode hex="0142"/>
  <outline>
    <contour>
      <point x="353" y="-10" type="curve" smooth="yes"/>
      <point x="384" y="-10"/>
      <point x="410" y="-5"/>
      <point x="437" y="5" type="curve"/>
      <point x="447" y="50" type="line"/>
      <point x="414" y="38"/>
      <point x="389" y="33"/>
      <point x="361" y="33" type="curve" smooth="yes"/>
      <point x="293" y="33"/>
      <point x="259" y="57"/>
      <point x="274" y="130" type="curve" smooth="yes"/>
      <point x="313" y="315" type="line"/>
      <point x="509" y="433" type="line"/>
      <point x="521" y="489" type="line"/>
      <point x="324" y="371" type="line"/>
      <point x="399" y="727" type="line"/>
      <point x="167" y="727" type="line"/>
      <point x="158" y="684" type="line"/>
      <point x="341" y="684" type="line"/>
      <point x="269" y="341" type="line"/>
      <point x="89" y="233" type="line"/>
      <point x="77" y="177" type="line"/>
      <point x="257" y="285" type="line"/>
      <point x="225" y="132" type="line" smooth="yes"/>
      <point x="205" y="37"/>
      <point x="256" y="-10"/>
    </contour>
  </outline>
</glyph>
<glyph name="Eng" format="2">
  <advance width="600"/>
  <unicode hex="014A"/>
  <outline>
    <contour>
      <point x="315" y="-219" type="curve" smooth="yes"/>
      <point x="389" y="-219"/>
      <point x="429" y="-171"/>
      <point x="447" y="-87" type="curve" smooth="yes"/>
      <point x="614" y="700" type="line"/>
      <point x="565" y="700" type="line"/>
      <point x="433" y="82" type="line"/>
      <point x="251" y="700" type="line"/>
      <point x="183" y="700" type="line"/>
      <point x="34" y="0" type="line"/>
      <point x="83" y="0" type="line"/>
      <point x="220" y="642" type="line"/>
      <point x="413" y="-14" type="line"/>
      <point x="400" y="-79" type="line" smooth="yes"/>
      <point x="386" y="-145"/>
      <point x="356" y="-173"/>
      <point x="312" y="-173" type="curve" smooth="yes"/>
      <point x="288" y="-173"/>
      <point x="264" y="-167"/>
      <point x="235" y="-155" type="curve"/>
      <point x="226" y="-201" type="line"/>
      <point x="256" y="-215"/>
      <point x="289" y="-219"/>
    </contour>
  </outline>
</glyph>
<glyph name="eng" format="2">
  <advance width="600"/>
  <unicode hex="014B"/>
  <outline>
    <contour>
      <point x="286" y="-219" type="curve" smooth="yes"/>
      <point x="361" y="-219"/>
      <point x="404" y="-182"/>
      <point x="418" y="-115" type="curve" smooth="yes"/>
      <point x="502" y="286" type="line" smooth="yes"/>
      <point x="527" y="405"/>
      <point x="465" y="489"/>
      <point x="355" y="489" type="curve" smooth="yes"/>
      <point x="292" y="489"/>
      <point x="242" y="467"/>
      <point x="197" y="415" type="curve"/>
      <point x="211" y="481" type="line"/>
      <point x="162" y="481" type="line"/>
      <point x="59" y="0" type="line"/>
      <point x="108" y="0" type="line"/>
      <point x="187" y="367" type="line"/>
      <point x="227" y="420"/>
      <point x="280" y="446"/>
      <point x="344" y="446" type="curve" smooth="yes"/>
      <point x="428" y="446"/>
      <point x="474" y="381"/>
      <point x="453" y="283" type="curve" smooth="yes"/>
      <point x="372" y="-101" type="line" smooth="yes"/>
      <point x="361" y="-151"/>
      <point x="337" y="-173"/>
      <point x="288" y="-173" type="curve" smooth="yes"/>
      <point x="267" y="-173"/>
      <point x="246" y="-169"/>
      <point x="225" y="-161" type="curve"/>
      <point x="214" y="-207" type="line"/>
      <point x="237" y="-214"/>
      <point x="261" y="-219"/>
    </contour>
  </outline>
</glyph>
<glyph name="oe" format="2">
  <advance width="600"/>
  <unicode hex="0153"/>
  <outline>
    <contour>
      <point x="481" y="443" type="curve" smooth="yes"/>
      <point x="532" y="443"/>
      <point x="552" y="382"/>
      <point x="537" y="272" type="curve"/>
      <point x="341" y="272" type="line"/>
      <point x="369" y="372"/>
      <point x="427" y="443"/>
    </contour>
    <contour>
      <point x="139" y="36" type="curve" smooth="yes"/>
      <point x="92" y="36"/>
      <point x="64" y="84"/>
      <point x="64" y="164" type="curve" smooth="yes"/>
      <point x="64" y="302"/>
      <point x="142" y="443"/>
      <point x="218" y="443" type="curve" smooth="yes"/>
      <point x="265" y="443"/>
      <point x="293" y="395"/>
      <point x="293" y="314" type="curve" smooth="yes"/>
      <point x="293" y="177"/>
      <point x="215" y="36"/>
    </contour>
    <contour>
      <point x="132" y="-10" type="curve" smooth="yes"/>
      <point x="188" y="-10"/>
      <point x="245" y="33"/>
      <point x="285" y="106" type="curve"/>
      <point x="300" y="32"/>
      <point x="345" y="-10"/>
      <point x="407" y="-10" type="curve" smooth="yes"/>
      <point x="449" y="-10"/>
      <point x="493" y="7"/>
      <point x="532" y="39" type="curve"/>
      <point x="506" y="75" type="line"/>
      <point x="480" y="52"/>
      <point x="441" y="36"/>
      <point x="412" y="36" type="curve" smooth="yes"/>
      <point x="356" y="36"/>
      <point x="326" y="81"/>
      <point x="326" y="164" type="curve" smooth="yes"/>
      <point x="326" y="186"/>
      <point x="328" y="209"/>
      <point x="332" y="231" type="curve"/>
      <point x="576" y="231" type="line"/>
      <point x="585" y="277"/>
      <point x="589" y="306"/>
      <point x="589" y="336" type="curve" smooth="yes"/>
      <point x="589" y="438"/>
      <point x="554" y="489"/>
      <point x="484" y="489" type="curve" smooth="yes"/>
      <point x="429" y="489"/>
      <point x="373" y="446"/>
      <point x="333" y="372" type="curve"/>
      <point x="319" y="445"/>
      <point x="276" y="489"/>
      <point x="221" y="489" type="curve" smooth="yes"/>
      <point x="114" y="489"/>
      <point x="15" y="333"/>
      <point x="15" y="164" type="curve" smooth="yes"/>
      <point x="15" y="60"/>
      <point x="62" y="-10"/>
    </contour>
  </outline>
</glyph>
<glyph name="scedilla" format="2">
  <advance width="600"/>
  <unicode hex="015F"/>
  <outline>
    <contour>
      <point x="231" y="-235" type="curve"/>
      <point x="293" y="-235"/>
      <point x="341" y="-195"/>
      <point x="341" y="-138" type="curve"/>
      <point x="341" y="-99"/>
      <point x="313" y="-72"/>
      <point x="260" y="-68" type="curve"/>
      <point x="286" y="-10" type="line"/>
      <point x="398" y="-10"/>
      <point x="475" y="49"/>
      <point x="475" y="132" type="curve"/>
      <point x="475" y="319"/>
      <point x="168" y="216"/>
      <point x="168" y="357" type="curve" smooth="yes"/>
      <point x="168" y="411"/>
      <point x="217" y="445"/>
      <point x="295" y="445" type="curve" smooth="yes"/>
      <point x="351" y="445"/>
      <point x="412" y="419"/>
      <point x="464" y="369" type="curve"/>
      <point x="498" y="406" type="line"/>
      <point x="439" y="465"/>
      <point x="366" y="489"/>
      <point x="290" y="489" type="curve" smooth="yes"/>
      <point x="183" y="489"/>
      <point x="120" y="433"/>
      <point x="120" y="352" type="curve" smooth="yes"/>
      <point x="120" y="170"/>
      <point x="427" y="266"/>
      <point x="427" y="132" type="curve"/>
      <point x="427" y="73"/>
      <point x="374" y="34"/>
      <point x="290" y="34" type="curve" smooth="yes"/>
      <point x="219" y="34"/>
      <point x="168" y="58"/>
      <point x="109" y="116" type="curve"/>
      <point x="73" y="85" type="line"/>
      <point x="119" y="33"/>
      <point x="184" y="-1"/>
      <point x="253" y="-8" type="curve"/>
      <point x="214" y="-96" type="line"/>
      <point x="238" y="-96" type="line" smooth="yes"/>
      <point x="279" y="-96"/>
      <point x="306" y="-113"/>
      <point x="306" y="-144" type="curve"/>
      <point x="306" y="-178"/>
      <point x="279" y="-204"/>
      <point x="229" y="-204" type="curve"/>
      <point x="200" y="-204"/>
      <point x="177" y="-194"/>
      <point x="156" y="-171" type="curve"/>
      <point x="132" y="-195" type="line"/>
      <point x="150" y="-217"/>
      <point x="185" y="-235"/>
    </contour>
  </outline>
</glyph>
<glyph name="Tcedilla" format="2">
  <advance width="600"/>
  <unicode hex="0162"/>
  <outline>
    <contour>
      <point x="224" y="0" type="line"/>
      <point x="233" y="0" type="line"/>
      <point x="190" y="-96" type="line"/>
      <point x="214" y="-96" type="line" smooth="yes"/>
      <point x="255" y="-96"/>
      <point x="282" y="-113"/>
      <point x="282" y="-144" type="curve"/>
      <point x="282" y="-178"/>
      <point x="255" y="-204"/>
      <point x="205" y="-204" type="curve"/>
      <point x="176" y="-204"/>
      <point x="153" y="-194"/>
      <point x="132" y="-171" type="curve"/>
      <point x="108" y="-195" type="line"/>
      <point x="126" y="-217"/>
      <point x="161" y="-235"/>
      <point x="207" y="-235" type="curve"/>
      <point x="269" y="-235"/>
      <point x="317" y="-195"/>
      <point x="317" y="-138" type="curve"/>
      <point x="317" y="-99"/>
      <point x="289" y="-72"/>
      <point x="236" y="-68" type="curve"/>
      <point x="266" y="0" type="line"/>
      <point x="275" y="0" type="line"/>
      <point x="414" y="653" type="line"/>
      <point x="654" y="653" type="line"/>
      <point x="664" y="700" type="line"/>
      <point x="132" y="700" type="line"/>
      <point x="122" y="653" type="line"/>
      <point x="363" y="653" type="line"/>
    </contour>
  </outline>
</glyph>
<glyph name="tcedilla" format="2">
  <advance width="600"/>
  <unicode hex="0163"/>
  <outline>
    <contour>
      <point x="263" y="-235" type="curve"/>
      <point x="325" y="-235"/>
      <point x="373" y="-195"/>
      <point x="373" y="-138" type="curve"/>
      <point x="373" y="-99"/>
      <point x="345" y="-72"/>
      <point x="292" y="-68" type="curve"/>
      <point x="318" y="-10" type="line"/>
      <point x="323" y="-10"/>
      <point x="328" y="-10"/>
      <point x="333" y="-10" type="curve" smooth="yes"/>
      <point x="373" y="-10"/>
      <point x="416" y="-1"/>
      <point x="454" y="15" type="curve"/>
      <point x="465" y="64" type="line"/>
      <point x="413" y="44"/>
      <point x="377" y="36"/>
      <point x="338" y="36" type="curve" smooth="yes"/>
      <point x="264" y="36"/>
      <point x="233" y="63"/>
      <point x="247" y="130" type="curve" smooth="yes"/>
      <point x="313" y="438" type="line"/>
      <point x="545" y="438" type="line"/>
      <point x="554" y="481" type="line"/>
      <point x="322" y="481" type="line"/>
      <point x="353" y="625" type="line"/>
      <point x="301" y="612" type="line"/>
      <point x="273" y="481" type="line"/>
      <point x="101" y="481" type="line"/>
      <point x="92" y="438" type="line"/>
      <point x="264" y="438" type="line"/>
      <point x="196" y="122" type="line" smooth="yes"/>
      <point x="181" y="51"/>
      <point x="213" y="6"/>
      <point x="286" y="-6" type="curve"/>
      <point x="246" y="-96" type="line"/>
      <point x="270" y="-96" type="line" smooth="yes"/>
      <point x="311" y="-96"/>
      <point x="338" y="-113"/>
      <point x="338" y="-144" type="curve"/>
      <point x="338" y="-178"/>
      <point x="311" y="-204"/>
      <point x="261" y="-204" type="curve"/>
      <point x="232" y="-204"/>
      <point x="209" y="-194"/>
      <point x="188" y="-171" type="curve"/>
      <point x="164" y="-195" type="line"/>
      <point x="182" y="-217"/>
      <point x="217" y="-235"/>
    </contour>
  </outline>
</glyph>
<glyph name="Tbar" format="2">
  <advance width="600"/>
  <unicode hex="0166"/>
  <outline>
    <contour>
      <point x="224" y="0" type="line"/>
      <point x="275" y="0" type="line"/>
      <point x="345" y="329" type="line"/>
      <point x="507" y="329" type="line"/>
      <point x="516" y="373" type="line"/>
      <point x="354" y="373" type="line"/>
      <point x="414" y="653" type="line"/>
      <point x="654" y="653" type="line"/>
      <point x="664" y="700" type="line"/>
      <point x="132" y="700" type="line"/>
      <point x="122" y="653" type="line"/>
      <point x="363" y="653" type="line"/>
      <point x="303" y="373" type="line"/>
      <point x="141" y="373" type="line"/>
      <point x="132" y="329" type="line"/>
      <point x="294" y="329" type="line"/>
    </contour>
  </outline>
</glyph>
<glyph name="uogonek" format="2">
  <advance width="600"/>
  <unicode hex="0173"/>
  <outline>
    <contour>
      <point x="358" y="-232" type="curve" smooth="yes"/>
      <point x="379" y="-232"/>
      <point x="400" y="-227"/>
      <point x="415" y="-220" type="curve"/>
      <point x="412" y="-188" type="line"/>
      <point x="399" y="-193"/>
      <point x="380" y="-197"/>
      <point x="366" y="-197" type="curve" smooth="yes"/>
      <point x="328" y="-197"/>
      <point x="301" y="-176"/>
      <point x="301" y="-146" type="curve" smooth="yes"/>
      <point x="301" y="-102"/>
      <point x="332" y="-56"/>
      <point x="438" y="0" type="curve"/>
      <point x="541" y="481" type="line"/>
      <point x="492" y="481" type="line"/>
      <point x="414" y="115" type="line"/>
      <point x="373" y="62"/>
      <point x="322" y="36"/>
      <point x="258" y="36" type="curve" smooth="yes"/>
      <point x="174" y="36"/>
      <point x="129" y="100"/>
      <point x="150" y="198" type="curve" smooth="yes"/>
      <point x="211" y="481" type="line"/>
      <point x="162" y="481" type="line"/>
      <point x="101" y="195" type="line" smooth="yes"/>
      <point x="76" y="76"/>
      <point x="137" y="-8"/>
      <point x="247" y="-8" type="curve" smooth="yes"/>
      <point x="310" y="-8"/>
      <point x="359" y="15"/>
      <point x="403" y="68" type="curve"/>
      <point x="389" y="0" type="line"/>
      <point x="390" y="0" type="line"/>
      <point x="303" y="-47"/>
      <point x="261" y="-97"/>
      <point x="261" y="-154" type="curve" smooth="yes"/>
      <point x="261" y="-195"/>
      <point x="293" y="-232"/>
    </contour>
  </outline>
</glyph>
<glyph name="dotlessj" format="2">
  <advance width="600"/>
  <unicode hex="0237"/>
  <anchor x="435" y="481" name="top"/>
  <outline>
    <contour>
      <point x="172" y="-219" type="curve" smooth="yes"/>
      <point x="257" y="-219"/>
      <point x="322" y="-171"/>
      <point x="341" y="-81" type="curve" smooth="yes"/>
      <point x="459" y="481" type="line"/>
      <point x="154" y="481" type="line"/>
      <point x="145" y="438" type="line"/>
      <point x="401" y="438" type="line"/>
      <point x="293" y="-74" type="line" smooth="yes"/>
      <point x="278" y="-145"/>
      <point x="244" y="-173"/>
      <point x="175" y="-173" type="curve" smooth="yes"/>
      <point x="125" y="-173"/>
      <point x="80" y="-159"/>
      <point x="26" y="-131" type="curve"/>
      <point x="16" y="-179" type="line"/>
      <point x="69" y="-205"/>
      <point x="122" y="-219"/>
    </contour>
  </outline>
</glyph>
<glyph name="breve" format="2">
  <advance width="600"/>
  <unicode hex="02D8"/>
  <outline>
    <contour>
      <point x="382" y="573" type="curve" smooth="yes"/>
      <point x="454" y="573"/>
      <point x="512" y="619"/>
      <point x="543" y="692" type="curve"/>
      <point x="505" y="704" type="line"/>
      <point x="479" y="642"/>
      <point x="437" y="609"/>
      <point x="384" y="609" type="curve" smooth="yes"/>
      <point x="329" y="609"/>
      <point x="290" y="637"/>
      <point x="289" y="704" type="curve"/>
      <point x="251" y="698" type="line"/>
      <point x="253" y="619"/>
      <point x="308" y="573"/>
    </contour>
  </outline>
</glyph>
<glyph name="ring" format="2">
  <advance width="600"/>
  <unicode hex="02DA"/>
  <outline>
    <contour>
      <point x="377" y="568" type="curve" smooth="yes"/>
      <point x="440" y="568"/>
      <point x="493" y="625"/>
      <point x="493" y="688" type="curve" smooth="yes"/>
      <point x="493" y="744"/>
      <point x="454" y="783"/>
      <point x="397" y="783" type="curve" smooth="yes"/>
      <point x="334" y="783"/>
      <point x="281" y="726"/>
      <point x="281" y="663" type="curve" smooth="yes"/>
      <point x="281" y="607"/>
      <point x="320" y="568"/>
    </contour>
    <contour>
      <point x="378" y="602" type="curve" smooth="yes"/>
      <point x="345" y="602"/>
      <point x="316" y="626"/>
      <point x="316" y="665" type="curve" smooth="yes"/>
      <point x="316" y="710"/>
      <point x="352" y="749"/>
      <point x="396" y="749" type="curve" smooth="yes"/>
      <point x="429" y="749"/>
      <point x="458" y="725"/>
      <point x="458" y="686" type="curve" smooth="yes"/>
      <point x="458" y="641"/>
      <point x="422" y="602"/>
    </contour>
  </outline>
</glyph>
<glyph name="emdash" format="2">
  <advance width="600"/>
  <unicode hex="2014"/>
  <outline>
    <contour>
      <point x="19" y="258" type="line"/>
      <point x="589" y="258" type="line"/>
      <point x="598" y="302" type="line"/>
      <point x="29" y="302" type="line"/>
    </contour>
  </outline>
</glyph>
<glyph name="dagger" format="2">
  <advance width="600"/>
  <unicode hex="2020"/>
  <outline>
    <contour>
      <point x="225" y="0" type="line"/>
      <point x="273" y="0" type="line"/>
      <point x="369" y="452" type="line"/>
      <point x="505" y="452" type="line"/>
      <point x="515" y="496" type="line"/>
      <point x="379" y="496" type="line"/>
      <point x="422" y="700" type="line"/>
      <point x="374" y="700" type="line"/>
      <point x="331" y="496" type="line"/>
      <point x="195" y="496" type="line"/>
      <point x="185" y="452" type="line"/>
      <point x="321" y="452" type="line"/>
    </contour>
  </outline>
</glyph>
<glyph name="daggerdbl" format="2">
  <advance width="600"/>
  <unicode hex="2021"/>
  <outline>
    <contour>
      <point x="226" y="0" type="line"/>
      <point x="274" y="0" type="line"/>
      <point x="317" y="204" type="line"/>
      <point x="453" y="204" type="line"/>
      <point x="462" y="248" type="line"/>
      <point x="327" y="248" type="line"/>
      <point x="370" y="452" type="line"/>
      <point x="506" y="452" type="line"/>
      <point x="515" y="496" type="line"/>
      <point x="380" y="496" type="line"/>
      <point x="423" y="700" type="line"/>
      <point x="375" y="700" type="line"/>
      <point x="332" y="496" type="line"/>
      <point x="195" y="496" type="line"/>
      <point x="186" y="452" type="line"/>
      <point x="322" y="452" type="line"/>
      <point x="279" y="248" type="line"/>
      <point x="142" y="248" type="line"/>
      <point x="133" y="204" type="line"/>
      <point x="269" y="204" type="line"/>
    </contour>
  </outline>
</glyph>
<glyph name="ellipsis" format="2">
  <advance width="600"/>
  <unicode hex="2026"/>
  <outline>
    <contour>
      <point x="49" y="-8" type="curve" smooth="yes"/>
      <point x="82" y="-8"/>
      <point x="113" y="22"/>
      <point x="113" y="54" type="curve" smooth="yes"/>
      <point x="113" y="83"/>
      <point x="90" y="105"/>
      <point x="60" y="105" type="curve" smooth="yes"/>
      <point x="26" y="105"/>
      <point x="-5" y="77"/>
      <point x="-5" y="43" type="curve" smooth="yes"/>
      <point x="-5" y="14"/>
      <point x="18" y="-8"/>
    </contour>
    <contour>
      <point x="254" y="-8" type="curve" smooth="yes"/>
      <point x="287" y="-8"/>
      <point x="318" y="22"/>
      <point x="318" y="54" type="curve" smooth="yes"/>
      <point x="318" y="83"/>
      <point x="295" y="105"/>
      <point x="265" y="105" type="curve" smooth="yes"/>
      <point x="231" y="105"/>
      <point x="200" y="77"/>
      <point x="200" y="43" type="curve" smooth="yes"/>
      <point x="200" y="14"/>
      <point x="223" y="-8"/>
    </contour>
    <contour>
      <point x="459" y="-8" type="curve" smooth="yes"/>
      <point x="492" y="-8"/>
      <point x="523" y="22"/>
      <point x="523" y="54" type="curve" smooth="yes"/>
      <point x="523" y="83"/>
      <point x="500" y="105"/>
      <point x="470" y="105" type="curve" smooth="yes"/>
      <point x="436" y="105"/>
      <point x="405" y="77"/>
      <point x="405" y="43" type="curve" smooth="yes"/>
      <point x="405" y="14"/>
      <point x="428" y="-8"/>
    </contour>
  </outline>
</glyph>
<glyph name="perthousand" format="2">
  <advance width="600"/>
  <unicode hex="2030"/>
  <outline>
    <contour>
      <point x="252" y="30" type="curve" smooth="yes"/>
      <point x="228" y="30"/>
      <point x="215" y="49"/>
      <point x="215" y="87" type="curve" smooth="yes"/>
      <point x="215" y="152"/>
      <point x="247" y="216"/>
      <point x="279" y="216" type="curve" smooth="yes"/>
      <point x="303" y="216"/>
      <point x="316" y="196"/>
      <point x="316" y="159" type="curve" smooth="yes"/>
      <point x="316" y="94"/>
      <point x="284" y="30"/>
    </contour>
    <contour>
      <point x="251" y="-5" type="curve" smooth="yes"/>
      <point x="306" y="-5"/>
      <point x="356" y="72"/>
      <point x="356" y="156" type="curve" smooth="yes"/>
      <point x="356" y="213"/>
      <point x="326" y="251"/>
      <point x="280" y="251" type="curve" smooth="yes"/>
      <point x="225" y="251"/>
      <point x="175" y="174"/>
      <point x="175" y="90" type="curve" smooth="yes"/>
      <point x="175" y="33"/>
      <point x="205" y="-5"/>
    </contour>
    <contour>
      <point x="-2" y="0" type="line"/>
      <point x="38" y="0" type="line"/>
      <point x="446" y="700" type="line"/>
      <point x="406" y="700" type="line"/>
    </contour>
    <contour>
      <point x="164" y="449" type="curve" smooth="yes"/>
      <point x="219" y="449"/>
      <point x="269" y="526"/>
      <point x="269" y="610" type="curve" smooth="yes"/>
      <point x="269" y="667"/>
      <point x="239" y="705"/>
      <point x="193" y="705" type="curve" smooth="yes"/>
      <point x="138" y="705"/>
      <point x="88" y="628"/>
      <point x="88" y="544" type="curve" smooth="yes"/>
      <point x="88" y="487"/>
      <point x="118" y="449"/>
    </contour>
    <contour>
      <point x="454" y="-5" type="curve" smooth="yes"/>
      <point x="509" y="-5"/>
      <point x="559" y="72"/>
      <point x="559" y="156" type="curve" smooth="yes"/>
      <point x="559" y="213"/>
      <point x="529" y="251"/>
      <point x="483" y="251" type="curve" smooth="yes"/>
      <point x="428" y="251"/>
      <point x="378" y="174"/>
      <point x="378" y="90" type="curve" smooth="yes"/>
      <point x="378" y="33"/>
      <point x="408" y="-5"/>
    </contour>
    <contour>
      <point x="128" y="541" type="curve" smooth="yes"/>
      <point x="128" y="606"/>
      <point x="160" y="670"/>
      <point x="192" y="670" type="curve" smooth="yes"/>
      <point x="216" y="670"/>
      <point x="229" y="651"/>
      <point x="229" y="613" type="curve" smooth="yes"/>
      <point x="229" y="548"/>
      <point x="197" y="484"/>
      <point x="165" y="484" type="curve" smooth="yes"/>
      <point x="141" y="484"/>
      <point x="128" y="504"/>
    </contour>
    <contour>
      <point x="455" y="30" type="curve" smooth="yes"/>
      <point x="431" y="30"/>
      <point x="418" y="49"/>
      <point x="418" y="87" type="curve" smooth="yes"/>
      <point x="418" y="152"/>
      <point x="450" y="216"/>
      <point x="482" y="216" type="curve" smooth="yes"/>
      <point x="506" y="216"/>
      <point x="519" y="196"/>
      <point x="519" y="159" type="curve" smooth="yes"/>
      <point x="519" y="94"/>
      <point x="487" y="30"/>
    </contour>
  </outline>
</glyph>
<glyph name="guilsinglright" format="2">
  <advance width="600"/>
  <unicode hex="203A"/>
  <outline>
    <contour>
      <point x="267" y="481" type="line"/>
      <point x="214" y="481" type="line"/>
      <point x="376" y="245" type="line"/>
      <point x="111" y="0" type="line"/>
      <point x="174" y="0" type="line"/>
      <point x="436" y="240" type="line"/>
    </contour>
  </outline>
</glyph>
<glyph name="fraction" format="2">
  <advance width="600"/>
  <unicode hex="2044"/>
  <outline>
    <contour>
      <point x="-16" y="0" type="line"/>
      <point x="33" y="0" type="line"/>
      <point x="576" y="700" type="line"/>
      <point x="527" y="700" type="line"/>
    </contour>
  </outline>
</glyph>
<glyph name="uni2079" format="2">
  <advance width="600"/>
  <unicode hex="2079"/>
  <outline>
    <contour>
      <point x="387" y="704" type="curve" smooth="yes"/>
      <point x="314" y="704"/>
      <point x="254" y="647"/>
      <point x="254" y="579" type="curve" smooth="yes"/>
      <point x="254" y="523"/>
      <point x="298" y="483"/>
      <point x="357" y="483" type="curve" smooth="yes"/>
      <point x="397" y="483"/>
      <point x="436" y="498"/>
      <point x="463" y="522" type="curve"/>
      <point x="445" y="439"/>
      <point x="383" y="379"/>
      <point x="316" y="379" type="curve" smooth="yes"/>
      <point x="293" y="379"/>
      <point x="269" y="386"/>
      <point x="246" y="401" type="curve"/>
      <point x="226" y="368" type="line"/>
      <point x="255" y="352"/>
      <point x="285" y="344"/>
      <point x="313" y="344" type="curve" smooth="yes"/>
      <point x="418" y="344"/>
      <point x="506" y="443"/>
      <point x="506" y="569" type="curve" smooth="yes"/>
      <point x="506" y="650"/>
      <point x="459" y="704"/>
    </contour>
    <contour>
      <point x="382" y="669" type="curve" smooth="yes"/>
      <point x="435" y="669"/>
      <point x="473" y="631"/>
      <point x="467" y="554" type="curve"/>
      <point x="441" y="529"/>
      <point x="406" y="515"/>
      <point x="373" y="515" type="curve" smooth="yes"/>
      <point x="325" y="515"/>
      <point x="292" y="543"/>
      <point x="292" y="584" type="curve" smooth="yes"/>
      <point x="292" y="630"/>
      <point x="333" y="669"/>
    </contour>
  </outline>
</glyph>
<glyph name="uni2082" format="2">
  <advance width="600"/>
  <unicode hex="2082"/>
  <outline>
    <contour>
      <point x="135" y="0" type="line"/>
      <point x="368" y="0" type="line"/>
      <point x="375" y="35" type="line"/>
      <point x="196" y="35" type="line"/>
      <point x="346" y="154" type="line" smooth="yes"/>
      <point x="396" y="194"/>
      <point x="417" y="225"/>
      <point x="417" y="268" type="curve" smooth="yes"/>
      <point x="417" y="319"/>
      <point x="371" y="355"/>
      <point x="312" y="355" type="curve" smooth="yes"/>
      <point x="273" y="355"/>
      <point x="234" y="340"/>
      <point x="191" y="311" type="curve"/>
      <point x="212" y="281" type="line"/>
      <point x="250" y="308"/>
      <point x="277" y="320"/>
      <point x="308" y="320" type="curve" smooth="yes"/>
      <point x="350" y="320"/>
      <point x="378" y="297"/>
      <point x="378" y="261" type="curve" smooth="yes"/>
      <point x="378" y="231"/>
      <point x="360" y="205"/>
      <point x="323" y="175" type="curve" smooth="yes"/>
      <point x="141" y="30" type="line"/>
    </contour>
  </outline>
</glyph>
<glyph name="uni2083" format="2">
  <advance width="600"/>
  <unicode hex="2083"/>
  <outline>
    <contour>
      <point x="261" y="-5" type="curve" smooth="yes"/>
      <point x="337" y="-5"/>
      <point x="391" y="37"/>
      <point x="391" y="93" type="curve" smooth="yes"/>
      <point x="391" y="132"/>
      <point x="363" y="163"/>
      <point x="321" y="174" type="curve"/>
      <point x="377" y="185"/>
      <point x="413" y="221"/>
      <point x="413" y="265" type="curve" smooth="yes"/>
      <point x="413" y="315"/>
      <point x="365" y="355"/>
      <point x="303" y="355" type="curve" smooth="yes"/>
      <point x="265" y="355"/>
      <point x="225" y="343"/>
      <point x="185" y="318" type="curve"/>
      <point x="203" y="287" type="line"/>
      <point x="246" y="311"/>
      <point x="274" y="320"/>
      <point x="301" y="320" type="curve" smooth="yes"/>
      <point x="344" y="320"/>
      <point x="374" y="295"/>
      <point x="374" y="260" type="curve" smooth="yes"/>
      <point x="374" y="221"/>
      <point x="333" y="191"/>
      <point x="278" y="191" type="curve" smooth="yes"/>
      <point x="251" y="191" type="line"/>
      <point x="245" y="160" type="line"/>
      <point x="273" y="160" type="line" smooth="yes"/>
      <point x="321" y="160"/>
      <point x="352" y="134"/>
      <point x="352" y="98" type="curve" smooth="yes"/>
      <point x="352" y="58"/>
      <point x="311" y="30"/>
      <point x="260" y="30" type="curve" smooth="yes"/>
      <point x="223" y="30"/>
      <point x="185" y="47"/>
      <point x="157" y="76" type="curve"/>
      <point x="133" y="47" type="line"/>
      <point x="167" y="11"/>
      <point x="207" y="-5"/>
    </contour>
  </outline>
</glyph>
<glyph name="uni2084" format="2">
  <advance width="600"/>
  <unicode hex="2084"/>
  <outline>
    <contour>
      <point x="310" y="0" type="line"/>
      <point x="349" y="0" type="line"/>
      <point x="369" y="92" type="line"/>
      <point x="410" y="92" type="line"/>
      <point x="418" y="126" type="line"/>
      <point x="376" y="126" type="line"/>
      <point x="424" y="350" type="line"/>
      <point x="381" y="350" type="line"/>
      <point x="141" y="123" type="line"/>
      <point x="136" y="92" type="line"/>
      <point x="330" y="92" type="line"/>
    </contour>
    <contour>
      <point x="191" y="126" type="line"/>
      <point x="374" y="299" type="line"/>
      <point x="337" y="126" type="line"/>
    </contour>
  </outline>
</glyph>
<glyph name="uni2085" format="2">
  <advance width="600"/>
  <unicode hex="2085"/>
  <outline>
    <contour>
      <point x="256" y="-5" type="curve" smooth="yes"/>
      <point x="332" y="-5"/>
      <point x="394" y="48"/>
      <point x="394" y="117" type="curve" smooth="yes"/>
      <point x="394" y="175"/>
      <point x="348" y="215"/>
      <point x="279" y="215" type="curve" smooth="yes"/>
      <point x="260" y="215"/>
      <point x="241" y="211"/>
      <point x="220" y="205" type="curve"/>
      <point x="247" y="315" type="line"/>
      <point x="419" y="315" type="line"/>
      <point x="427" y="350" type="line"/>
      <point x="220" y="350" type="line"/>
      <point x="179" y="183" type="line"/>
      <point x="200" y="173" type="line"/>
      <point x="222" y="181"/>
      <point x="244" y="184"/>
      <point x="271" y="184" type="curve" smooth="yes"/>
      <point x="325" y="184"/>
      <point x="355" y="160"/>
      <point x="355" y="115" type="curve" smooth="yes"/>
      <point x="355" y="67"/>
      <point x="312" y="30"/>
      <point x="257" y="30" type="curve" smooth="yes"/>
      <point x="221" y="30"/>
      <point x="187" y="44"/>
      <point x="157" y="72" type="curve"/>
      <point x="135" y="41" type="line"/>
      <point x="166" y="11"/>
      <point x="206" y="-5"/>
    </contour>
  </outline>
</glyph>
<glyph name="Euro" format="2">
  <advance width="600"/>
  <unicode hex="20AC"/>
  <outline>
    <contour>
      <point x="36" y="262" type="line"/>
      <point x="129" y="262" type="line"/>
      <point x="132" y="81"/>
      <point x="219" y="-11"/>
      <point x="333" y="-11" type="curve" smooth="yes"/>
      <point x="418" y="-11"/>
      <point x="503" y="50"/>
      <point x="559" y="147" type="curve"/>
      <point x="514" y="165" type="line"/>
      <point x="468" y="85"/>
      <point x="401" y="34"/>
      <point x="331" y="34" type="curve" smooth="yes"/>
      <point x="246" y="34"/>
      <point x="184" y="115"/>
      <point x="180" y="262" type="curve"/>
      <point x="377" y="262" type="line"/>
      <point x="401" y="306" type="line"/>
      <point x="181" y="306" type="line"/>
      <point x="182" y="338"/>
      <point x="186" y="368"/>
      <point x="192" y="397" type="curve"/>
      <point x="454" y="397" type="line"/>
      <point x="480" y="441" type="line"/>
      <point x="203" y="441" type="line"/>
      <point x="242" y="575"/>
      <point x="327" y="665"/>
      <point x="417" y="665" type="curve" smooth="yes"/>
      <point x="491" y="665"/>
      <point x="549" y="611"/>
      <point x="570" y="512" type="curve"/>
      <point x="619" y="522" type="line"/>
      <point x="593" y="648"/>
      <point x="514" y="711"/>
      <point x="415" y="711" type="curve" smooth="yes"/>
      <point x="305" y="711"/>
      <point x="197" y="604"/>
      <point x="151" y="441" type="curve"/>
      <point x="74" y="441" type="line"/>
      <point x="65" y="397" type="line"/>
      <point x="141" y="397" type="line"/>
      <point x="135" y="368"/>
      <point x="131" y="338"/>
      <point x="130" y="306" type="curve"/>
      <point x="45" y="306" type="line"/>
    </contour>
  </outline>
</glyph>
<glyph name="trademark" format="2">
  <advance width="600"/>
  <unicode hex="2122"/>
  <outline>
    <contour>
      <point x="329" y="424" type="line"/>
      <point x="361" y="424" type="line"/>
      <point x="409" y="649" type="line"/>
      <point x="465" y="443" type="line"/>
      <point x="610" y="654" type="line"/>
      <point x="561" y="424" type="line"/>
      <point x="593" y="424" type="line"/>
      <point x="652" y="700" type="line"/>
      <point x="607" y="700" type="line"/>
      <point x="477" y="506" type="line"/>
      <point x="428" y="700" type="line"/>
      <point x="388" y="700" type="line"/>
    </contour>
    <contour>
      <point x="171" y="424" type="line"/>
      <point x="203" y="424" type="line"/>
      <point x="256" y="670" type="line"/>
      <point x="342" y="670" type="line"/>
      <point x="348" y="700" type="line"/>
      <point x="145" y="700" type="line"/>
      <point x="138" y="670" type="line"/>
      <point x="224" y="670" type="line"/>
    </contour>
  </outline>
</glyph>
<glyph name="minus" format="2">
  <advance width="600"/>
  <unicode hex="2212"/>
  <outline>
    <contour>
      <point x="130" y="335" type="line"/>
      <point x="511" y="335" type="line"/>
      <point x="521" y="380" type="line"/>
      <point x="140" y="380" type="line"/>
    </contour>
  </outline>
</glyph>
<glyph name="notequal" format="2">
  <advance width="600"/>
  <unicode hex="2260"/>
  <outline>
    <contour>
      <point x="97" y="134" type="line"/>
      <point x="141" y="134" type="line"/>
      <point x="256" y="259" type="line"/>
      <point x="494" y="259" type="line"/>
      <point x="504" y="304" type="line"/>
      <point x="297" y="304" type="line"/>
      <point x="396" y="411" type="line"/>
      <point x="527" y="411" type="line"/>
      <point x="537" y="456" type="line"/>
      <point x="437" y="456" type="line"/>
      <point x="552" y="581" type="line"/>
      <point x="508" y="581" type="line"/>
      <point x="393" y="456" type="line"/>
      <point x="156" y="456" type="line"/>
      <point x="146" y="411" type="line"/>
      <point x="352" y="411" type="line"/>
      <point x="253" y="304" type="line"/>
      <point x="123" y="304" type="line"/>
      <point x="113" y="259" type="line"/>
      <point x="212" y="259" type="line"/>
    </contour>
  </outline>
</glyph>
<glyph name="fl" format="2">
  <advance width="600"/>
  <unicode hex="FB02"/>
  <outline>
    <contour>
      <point x="93" y="0" type="line"/>
      <point x="142" y="0" type="line"/>
      <point x="236" y="438" type="line"/>
      <point x="385" y="438" type="line"/>
      <point x="395" y="481" type="line"/>
      <point x="246" y="481" type="line"/>
      <point x="272" y="603" type="line" smooth="yes"/>
      <point x="285" y="663"/>
      <point x="309" y="690"/>
      <point x="363" y="690" type="curve" smooth="yes"/>
      <point x="387" y="690"/>
      <point x="404" y="687"/>
      <point x="427" y="677" type="curve"/>
      <point x="436" y="724" type="line"/>
      <point x="416" y="733"/>
      <point x="394" y="737"/>
      <point x="368" y="737" type="curve" smooth="yes"/>
      <point x="293" y="737"/>
      <point x="242" y="691"/>
      <point x="224" y="607" type="curve" smooth="yes"/>
      <point x="197" y="481" type="line"/>
      <point x="80" y="481" type="line"/>
      <point x="70" y="438" type="line"/>
      <point x="188" y="438" type="line"/>
    </contour>
    <contour>
      <point x="397" y="0" type="line"/>
      <point x="446" y="0" type="line"/>
      <point x="601" y="728" type="line"/>
      <point x="549" y="715" type="line"/>
    </contour>
  </outline>
</glyph>
<glyph name=".notdef" format="2">
  <advance width="600"/>
  <guideline x="-606" y="424" angle="78.0" identifier="ag4Gu1Qc9W"/>
  <outline>
    <contour>
      <point x="104" y="-100" type="line"/>
      <point x="498" y="-100" type="line"/>
      <point x="498" y="750" type="line"/>
      <point x="104" y="750" type="line"/>
    </contour>
  </outline>
</glyph>
<glyph name="acutecomb" format="2">
  <anchor x="351" y="481" name="_top"/>
  <outline>
    <contour>
      <point x="327" y="579" type="line"/>
      <point x="377" y="579" type="line"/>
      <point x="529" y="695" type="line"/>
      <point x="453" y="695" type="line"/>
    </contour>
  </outline>
</glyph>
<glyph name="cordinal" format="2">
  <advance width="600"/>
  <outline>
    <contour>
      <point x="373" y="323" type="curve" smooth="yes"/>
      <point x="417" y="323"/>
      <point x="462" y="338"/>
      <point x="502" y="365" type="curve"/>
      <point x="484" y="400" type="line"/>
      <point x="449" y="376"/>
      <point x="414" y="364"/>
      <point x="378" y="364" type="curve" smooth="yes"/>
      <point x="303" y="364"/>
      <point x="247" y="421"/>
      <point x="247" y="500" type="curve"/>
      <point x="247" y="589"/>
      <point x="321" y="670"/>
      <point x="405" y="670" type="curve"/>
      <point x="453" y="670"/>
      <point x="501" y="645"/>
      <point x="524" y="608" type="curve"/>
      <point x="556" y="633" type="line"/>
      <point x="528" y="679"/>
      <point x="467" y="711"/>
      <point x="406" y="711" type="curve"/>
      <point x="293" y="711"/>
      <point x="201" y="614"/>
      <point x="201" y="499" type="curve"/>
      <point x="201" y="398"/>
      <point x="275" y="323"/>
    </contour>
  </outline>
</glyph>
<glyph name="g.alt" format="2">
  <advance width="600"/>
  <anchor x="327" y="481" name="top"/>
  <outline>
    <contour>
      <point x="234" y="-219" type="curve" smooth="yes"/>
      <point x="369" y="-219"/>
      <point x="466" y="-162"/>
      <point x="466" y="-83" type="curve" smooth="yes"/>
      <point x="466" y="-23"/>
      <point x="426" y="16"/>
      <point x="358" y="23" type="curve" smooth="yes"/>
      <point x="189" y="41" type="line" smooth="yes"/>
      <point x="154" y="45"/>
      <point x="137" y="61"/>
      <point x="137" y="83" type="curve" smooth="yes"/>
      <point x="137" y="113"/>
      <point x="172" y="139"/>
      <point x="220" y="144" type="curve"/>
      <point x="242" y="136"/>
      <point x="265" y="131"/>
      <point x="290" y="131" type="curve" smooth="yes"/>
      <point x="400" y="131"/>
      <point x="493" y="225"/>
      <point x="493" y="326" type="curve" smooth="yes"/>
      <point x="493" y="352"/>
      <point x="487" y="375"/>
      <point x="477" y="397" type="curve"/>
      <point x="482" y="439"/>
      <point x="511" y="466"/>
      <point x="549" y="466" type="curve" smooth="yes"/>
      <point x="565" y="466"/>
      <point x="578" y="463"/>
      <point x="591" y="460" type="curve"/>
      <point x="601" y="514" type="line"/>
      <point x="591" y="516"/>
      <point x="576" y="518"/>
      <point x="566" y="518" type="curve" smooth="yes"/>
      <point x="510" y="518"/>
      <point x="470" y="485"/>
      <point x="459" y="425" type="curve"/>
      <point x="428" y="464"/>
      <point x="379" y="489"/>
      <point x="322" y="489" type="curve" smooth="yes"/>
      <point x="212" y="489"/>
      <point x="119" y="395"/>
      <point x="119" y="294" type="curve" smooth="yes"/>
      <point x="119" y="238"/>
      <point x="146" y="190"/>
      <point x="189" y="161" type="curve"/>
      <point x="131" y="150"/>
      <point x="88" y="111"/>
      <point x="88" y="69" type="curve" smooth="yes"/>
      <point x="88" y="42"/>
      <point x="103" y="20"/>
      <point x="130" y="7" type="curve"/>
      <point x="50" y="-15"/>
      <point x="18" y="-44"/>
      <point x="18" y="-93" type="curve" smooth="yes"/>
      <point x="18" y="-164"/>
      <point x="96" y="-219"/>
    </contour>
    <contour>
      <point x="292" y="175" type="curve" smooth="yes"/>
      <point x="220" y="175"/>
      <point x="168" y="224"/>
      <point x="168" y="295" type="curve" smooth="yes"/>
      <point x="168" y="376"/>
      <point x="238" y="445"/>
      <point x="320" y="445" type="curve" smooth="yes"/>
      <point x="392" y="445"/>
      <point x="444" y="396"/>
      <point x="444" y="325" type="curve" smooth="yes"/>
      <point x="444" y="244"/>
      <point x="374" y="175"/>
    </contour>
    <contour>
      <point x="236" y="-178" type="curve" smooth="yes"/>
      <point x="127" y="-178"/>
      <point x="68" y="-145"/>
      <point x="68" y="-92" type="curve" smooth="yes"/>
      <point x="68" y="-50"/>
      <point x="102" y="-20"/>
      <point x="167" y="-5" type="curve"/>
      <point x="171" y="-5"/>
      <point x="174" y="-6"/>
      <point x="177" y="-6" type="curve" smooth="yes"/>
      <point x="343" y="-23" type="line" smooth="yes"/>
      <point x="391" y="-28"/>
      <point x="416" y="-45"/>
      <point x="416" y="-82" type="curve" smooth="yes"/>
      <point x="416" y="-136"/>
      <point x="339" y="-178"/>
    </contour>
  </outline>
</glyph>
<glyph name="reversequotedblleft" format="2">
  <advance width="600"/>
  <outline>
    <contour>
      <point x="374" y="538" type="line"/>
      <point x="282" y="750" type="line"/>
      <point x="207" y="750" type="line"/>
      <point x="332" y="538" type="line"/>
    </contour>
    <contour>
      <point x="516" y="538" type="line"/>
      <point x="424" y="750" type="line"/>
      <point x="349" y="750" type="line"/>
      <point x="474" y="538" type="line"/>
    </contour>
  </outline>
</glyph>
<glyph name="uni0307" format="2">
  <guideline x="398" y="658" angle="90.0" identifier="gyU9WAvrBP"/>
  <guideline x="398" y="658" angle="0.0" identifier="wUfi6yLrDP"/>
  <anchor x="361" y="481" name="_top"/>
  <outline>
    <contour>
      <point x="392" y="605" type="curve" smooth="yes"/>
      <point x="424" y="605"/>
      <point x="450" y="631"/>
      <point x="450" y="660" type="curve" smooth="yes"/>
      <point x="450" y="687"/>
      <point x="427" y="710"/>
      <point x="400" y="710" type="curve" smooth="yes"/>
      <point x="369" y="710"/>
      <point x="343" y="683"/>
      <point x="343" y="655" type="curve" smooth="yes"/>
      <point x="343" y="626"/>
      <point x="364" y="605"/>
    </contour>
  </outline>
</glyph>
<glyph name="uni030B" format="2">
  <anchor x="351" y="481" name="_top"/>
  <outline>
    <contour>
      <point x="235" y="577" type="line"/>
      <point x="292" y="577" type="line"/>
      <point x="452" y="695" type="line"/>
      <point x="383" y="695" type="line"/>
    </contour>
    <contour>
      <point x="391" y="577" type="line"/>
      <point x="448" y="577" type="line"/>
      <point x="608" y="695" type="line"/>
      <point x="539" y="695" type="line"/>
    </contour>
  </outline>
</glyph>
<glyph name="uni030C" format="2">
  <anchor x="351" y="481" name="_top"/>
  <outline>
    <contour>
      <point x="344" y="577" type="line"/>
      <point x="401" y="577" type="line"/>
      <point x="534" y="698" type="line"/>
      <point x="488" y="698" type="line"/>
      <point x="377" y="609" type="line"/>
      <point x="302" y="698" type="line"/>
      <point x="261" y="698" type="line"/>
    </contour>
  </outline>
</glyph>
